<?xml version="1.0" encoding="utf-8"?>
<!-- Generator: Adobe Illustrator 19.1.0, SVG Export Plug-In . SVG Version: 6.00 Build 0)  -->
<!DOCTYPE svg PUBLIC "-//W3C//DTD SVG 1.1//EN" "http://www.w3.org/Graphics/SVG/1.1/DTD/svg11.dtd">
<svg version="1.1" id="Layer_1" xmlns="http://www.w3.org/2000/svg" xmlns:xlink="http://www.w3.org/1999/xlink" x="0px" y="0px"
	 viewBox="0 0 477 127.5" style="enable-background:new 0 0 477 127.5;" xml:space="preserve">
	 <style>.svg-pink {fill: #e33558}</style>
<g>
	<path class="svg-pink" d="M27.5,22.8c0-1.7-0.9-3.6-2.7-5.6l0.1-0.8c4.1-2.4,9.1-3.6,15.1-3.6c2.3,0,4,0.2,5.1,0.6c0.4,0.8,0.6,2,0.6,3.4
		s-0.1,3.1-0.3,4.9c-0.2,1.8-0.4,3.4-0.6,4.8c-0.2,1.4-0.6,3.4-1.2,6c-0.6,2.6-1,4.5-1.3,5.6c-6.1,23.7-9.6,41.3-10.4,52.9
		c-4.4,1.3-9.3,1.9-14.7,1.9c-1.3,0-2.2-0.1-2.8-0.3c0.4-4.6,2.6-16.2,6.8-34.7C25.4,39.4,27.5,27.7,27.5,22.8z M82.5,20.9
		c0,5.9-2.6,11.8-7.7,17.7c-5.1,5.9-11.1,11-18.1,15.1c1.6,1.6,3.6,5.8,6.2,12.8c2.5,6.9,4.6,12.3,6,16.1c1.5,3.8,3.3,7.4,5.4,10.8
		c2.1,3.4,4.3,5.1,6.4,5.1c0.4,0,0.8,0,1-0.1l1.1,4c-3.7,2.9-7.8,4.4-12.5,4.4c-4.7,0-8-1.2-10-3.6c-1.9-2.4-3.7-7.4-5.4-14.9
		c-0.2-1-0.9-4.1-1.9-9.3c-2.3-11.4-4.2-18.4-5.6-21c-0.4,0.1-1.3,0.1-2.7,0.1c-1.3,0-2.4-0.3-3-0.8c-0.5-0.5-0.8-1.8-0.8-3.8
		c0-2,0.2-3.6,0.6-4.6c0.4-1.1,1.6-1.6,3.7-1.6c2.1,0,4.2,0.6,6.1,1.9c2.7-1.8,6-5.2,10-10.3c2.1-3.8,3.1-8.1,3.1-13
		c0-2.2-0.2-4.4-0.6-6.8c2.5-1.6,5-2.8,7.6-3.7c2.6-0.9,4.5-1.5,5.9-1.6l2-0.2C81.5,14.5,82.5,17,82.5,20.9z"/>
	<path class="svg-pink" d="M103.4,49.6c0,3.1-1,8.5-3,16.2c-2,7.6-3,12.6-3,15c0,2.4,0.3,3.5,1,3.5c0.4,0,2.2-0.7,5.1-2.1l1.3-0.7l1.9,3.9
		c-0.7,0.6-1.6,1.3-2.7,2.2c-1.1,0.9-3.2,2.1-6.3,3.6c-3.1,1.5-5.9,2.3-8.5,2.3c-2.6,0-4.7-0.8-6.2-2.4c-1.5-1.6-2.2-3.8-2.2-6.5
		c0-2.7,0.9-7.6,2.8-14.6c1.9-7,2.8-11.5,2.8-13.6c0-3.1-1-6.1-2.9-8.8l-1-1.3l0.1-1.5c4-1.1,10.4-1.7,19.3-1.7
		C102.9,44.4,103.4,46.5,103.4,49.6z M90.6,31c-1.5-1.5-2.2-3.4-2.2-5.9s1-4.6,3.1-6.5c2.1-1.9,4.4-2.8,7.1-2.8
		c2.7,0,4.8,0.7,6.3,2.2c1.5,1.5,2.2,3.5,2.2,5.9c0,2.4-1.1,4.6-3.2,6.4c-2.1,1.9-4.5,2.8-7.1,2.8C94.2,33.2,92.1,32.5,90.6,31z"/>
	<path class="svg-pink" d="M113.1,83.1l1.2-29.2c0-2.5-1.3-5.1-4-7.8l0.2-1.3c0.5-0.1,1-0.3,1.5-0.4c0.5-0.1,1-0.2,1.7-0.4c0.6-0.1,1.4-0.3,2.2-0.4
		c0.8-0.1,1.7-0.3,2.6-0.4c2.1-0.2,4-0.3,5.9-0.3c1.8,0,3.4,0.7,4.7,2.2c1.3,1.5,2,3.9,2,7.1c0,3.2-0.5,7.9-1.5,13.9
		c-1,6-1.5,10.5-1.5,13.4c0,2.9,0.7,4.4,2.1,4.4c2.3,0,4.8-1.5,7.6-4.4c0.1-1.2,0.6-5,1.5-11.4c0.9-6.4,1.3-11.1,1.3-14
		s-0.2-5.4-0.7-7.5c5.7-2.2,10.9-3.2,15.4-3.2c1,0.7,1.5,2.9,1.5,6.5s-0.6,8.8-1.9,15.3c-1.3,6.5-1.9,11.3-1.9,14.2
		c0,2.9,0.6,4.4,1.8,4.4c2.8,0,5.9-2.1,9.3-6.3c3.4-4.2,5.1-7.7,5.4-10.6l-7.6-8.5c0.3-3.2,1.1-6.1,2.4-8.7c1.3-2.6,2.5-4.4,3.6-5.5
		l1.6-1.5c3.2,0,5.6,0.9,7.3,2.6c1.6,1.7,2.5,3.7,2.5,6c0,5.9-1.5,12.1-4.4,18.7c-2.9,6.6-6.8,12.1-11.8,16.7s-9.9,6.9-15,6.9
		c-2.5,0-4.7-0.7-6.4-2.2c-1.8-1.5-2.9-3.3-3.5-5.7c-5.2,5.2-10.3,7.8-15.2,7.8c-3.3,0-5.7-1-7.3-3.1
		C113.9,88.5,113.1,86,113.1,83.1z"/>
	<path class="svg-pink" d="M203.7,49.6c0,3.1-1,8.5-3,16.2c-2,7.6-3,12.6-3,15c0,2.4,0.3,3.5,1,3.5c0.4,0,2.2-0.7,5.1-2.1l1.3-0.7l1.9,3.9
		c-0.7,0.6-1.6,1.3-2.7,2.2c-1.1,0.9-3.2,2.1-6.3,3.6c-3.1,1.5-5.9,2.3-8.5,2.3c-2.6,0-4.7-0.8-6.2-2.4c-1.5-1.6-2.2-3.8-2.2-6.5
		c0-2.7,0.9-7.6,2.8-14.6c1.9-7,2.8-11.5,2.8-13.6c0-3.1-1-6.1-2.9-8.8l-1-1.3l0.1-1.5c4-1.1,10.4-1.7,19.3-1.7
		C203.2,44.4,203.7,46.5,203.7,49.6z M190.9,31c-1.5-1.5-2.2-3.4-2.2-5.9s1-4.6,3.1-6.5c2.1-1.9,4.4-2.8,7.1-2.8
		c2.7,0,4.8,0.7,6.3,2.2c1.5,1.5,2.2,3.5,2.2,5.9c0,2.4-1.1,4.6-3.2,6.4c-2.1,1.9-4.5,2.8-7.1,2.8C194.5,33.2,192.4,32.5,190.9,31z"
		/>
	<path class="svg-pink" d="M272.6,60.7c-0.5,0.1-1.5,0.1-2.9,0.1c-1.4,0-2.5-0.3-3.1-0.8c-0.5-0.5-0.8-1.8-0.8-3.8s0.2-3.6,0.6-4.6
		c0.4-1.1,1.5-1.6,3.5-1.6c2,0,3.9,0.5,5.7,1.5c2.2-1.6,4.2-4.2,6-7.6c1.9-3.4,2.8-7,2.8-10.6c0-5.3-1.6-9.2-4.8-11.6
		c-3.2-2.5-8.1-3.7-14.7-3.7c-9.6,0-17.4,1.9-23.4,5.6c-6.1,3.7-9.1,7.7-9.1,11.9c0,2,0.8,3.7,2.5,5c1.6,1.3,3.3,2.2,4.9,2.6
		c-0.3,3-1.2,5.7-2.8,8.3c-2.9-0.4-5.6-2-8.2-4.5c-2.5-2.6-3.8-6.1-3.8-10.5c0-7.3,4.2-13.3,12.6-18c8.4-4.7,18.9-7.1,31.3-7.1
		c10,0,17.9,1.9,23.7,5.6c5.8,3.7,8.7,9.2,8.7,16.5c0,5.1-1.9,9.6-5.7,13.7c-3.8,4.1-8.4,7.4-13.8,10c1.3,1.3,2.4,3.1,3.4,5.4
		c1,2.3,1.8,4.2,2.5,5.7c0.6,1.5,1.1,2.6,1.5,3.5c0.4,0.9,0.9,2.2,1.6,3.8c2.9,7.9,5.5,13.7,7.9,17.5c2.4,3.8,4.6,5.7,6.8,5.7
		c0.4,0,0.8,0,1-0.1l1.1,4c-3.7,2.9-7.8,4.4-12.5,4.4c-4.7,0-8-1.2-10-3.6c-1.9-2.4-3.7-7.4-5.4-14.9c-0.2-0.7-0.9-3.5-1.9-8.2
		C275.8,70,274.1,63.6,272.6,60.7z M251,33.9c0-1.7-0.9-3.6-2.7-5.6l0.1-0.8c4-2.3,8.9-3.5,14.8-3.5c2.3,0,4,0.2,5.1,0.6
		c0.4,0.8,0.6,2,0.6,3.5c0,3.3-1.9,12.7-5.8,28.2c-3.8,15.5-6.1,27.1-6.8,34.8c-4.4,1.3-9.3,1.9-14.7,1.9c-1.3,0-2.2-0.1-2.8-0.3
		c0.4-4.8,2.5-14.5,6.3-29.3C249.1,48.6,251,38.8,251,33.9z"/>
	<path class="svg-pink" d="M305.2,83.8c0-3.2,1-8.6,2.9-16.3c1.9-7.7,2.9-12.5,2.9-14.2c0-1.8-1.3-4.1-4-7l0.1-1.5c5.1-1,11.8-1.6,20-1.6
		c0.4,1,0.6,2.7,0.6,5.3c0,2.5-1,7.9-3.1,16.2c-2.1,8.3-3.1,13.4-3.1,15.4s0.7,3,2.2,3c2.2,0,4.7-0.8,7.5-2.4
		c0.3-1.8,1-5.2,2.2-10.3c2.7-11.9,4-20.5,4-25.6c2.6-1,7.3-1.6,14.1-1.6h2.1c0,3.5-1,10.4-3.1,20.5c-2.1,10.2-3.1,16.2-3.1,17.9
		c0,1.8,0.4,2.6,1.1,2.6c0.4,0,2.6-0.9,6.4-2.7l2.1,3.6c-6.6,5.5-12.5,8.3-17.5,8.3c-2.4,0-4.4-0.7-6.1-2c-1.7-1.3-2.6-3.1-2.9-5.3
		c-6,4.9-11.5,7.4-16.5,7.4c-2.6,0-4.8-0.9-6.4-2.6C306.1,89.4,305.2,87,305.2,83.8z"/>
	<path class="svg-pink" d="M389.2,14.2c0,5.7-1.9,16.8-5.7,33.4c4.5-3.2,8.5-4.8,12.1-4.8c3.6,0,6.7,1.5,9.3,4.5c2.6,3,3.9,7.6,3.9,13.8
		c0,10.4-2,18.4-6.1,24.1c-4.1,5.7-9,8.5-14.8,8.5c-2.2,0-4.3-0.3-6.5-0.8c-2.2-0.5-3.9-1.1-5-1.7l-1.7-0.8c-4.8,1.6-9.4,2.5-14,2.5
		c-0.4-0.4-0.7-2.2-0.7-5.4c0-3.2,2.1-14,6.3-32.2c4.2-18.2,6.3-30.7,6.3-37.4c0-1.2-0.2-2.7-0.6-4.6c5.8-2,11.4-3,16.7-3
		C389,11.2,389.2,12.5,389.2,14.2z M388.2,52.2c-1.4,0-3.5,0.7-6.4,2c-3.4,14.5-5.3,24.8-5.6,31.1c2.2,1,4.4,1.5,6.4,1.5
		c2.8,0,5.2-2.6,7.1-7.8c1.9-5.2,2.9-11,2.9-17.3C392.5,55.4,391.1,52.2,388.2,52.2z"/>
	<path class="svg-pink" d="M423.6,92.7c-6.2,0-9.3-3.4-9.3-10.3c0-1.6,0.7-6.4,2.2-14.2c1.5-7.8,2.2-14.4,2.2-19.6c0-1.1-0.2-2.2-0.4-3.1
		c4-1.6,9.6-2.4,16.6-2.4c0.4,1,0.6,2.8,0.6,5.4c0,2.5-0.8,7.6-2.5,15.2c-1.6,7.6-2.5,12.6-2.5,14.9c0,2.3,0.6,3.5,1.8,3.5
		c3.3,0,6.5-1.2,9.5-3.5c0.2-2.8,1.7-14,4.5-33.7c2.6-1,7.3-1.6,14.1-1.6h2.1c-0.9,3.5-2.4,12.4-4.4,26.6c-2.1,14.2-3.5,23.2-4.4,27
		c-0.9,3.8-2.1,7.2-3.6,10.1c-1.5,2.9-3.4,5.1-5.6,6.5c-2.2,1.5-4.4,2.4-6.7,3c-2.2,0.5-5.1,0.8-8.7,0.8c-3.5,0-6.9-1.1-10.1-3.4
		c-3.2-2.3-4.8-4.2-4.8-5.9c0-1,1.3-2.6,4-4.8c2.6-2.2,4.9-3.5,6.7-4c3.8,3.8,6.6,7.9,8.4,12.4c1.9,0,3.7-2.3,5.1-6.9
		c1.5-4.6,2.5-11.4,3-20.4c-1.8,1.8-4.5,3.6-8.2,5.5C429.7,91.8,426.5,92.7,423.6,92.7z"/>
</g>
</svg>
