<svg width="199" height="199" viewBox="0 0 199 199" xmlns="http://www.w3.org/2000/svg"><g fill="none"><path d="M99.64 199c-54.69 0-99.02-44.335-99.02-99.024 0-54.69 44.33-99.025 99.02-99.025s99.03 44.335 99.03 99.025c0 54.689-44.34 99.024-99.03 99.024z" fill="#6BC2DF"/><path d="M6.61 65.97h186.06c-13.87-37.939-50.29-65.019-93.03-65.019s-79.16 27.08-93.03 65.019" fill="#A5D9E5"/><path fill="#2B93BF" d="M51.37 130.887l-14.49-37.58 4.06-22.346 111.63.003 9.16 13.064-5.28 29.343-27.38 23.695-21.96 36.56-19.5-9.717-36.24-33.022"/><path fill="#fff" d="M117.39 39.226l-17.11-2.087-9.17-10.803-21.97 16.166-5.49 15.885-22.72 12.574 20.03 7.012 52.5 6 39.03-13.012-14.06-10.451-21.04-21.284"/></g></svg>
