<?xml version="1.0" encoding="UTF-8"?>
<svg width="391px" height="423px" viewBox="0 0 391 423" version="1.1" xmlns="http://www.w3.org/2000/svg" xmlns:xlink="http://www.w3.org/1999/xlink">
    <!-- Generator: Sketch 42 (36781) - http://www.bohemiancoding.com/sketch -->
    <title>Page 1</title>
    <desc>Created with Sketch.</desc>
    <defs>
        <polygon id="path-1" points="1.66222631e-14 371.524776 1.66222631e-14 0.772530612 354.814653 0.772530612 354.814653 371.524776 0 371.524776"></polygon>
    </defs>
    <g id="Page-1" stroke="none" stroke-width="1" fill="none" fill-rule="evenodd">
        <g id="gembirbs" transform="translate(-753.000000, -86.000000)">
            <g id="Page-1" transform="translate(753.725948, 87.000000)">
                <path d="M180.27502,370.306531 C180.27502,370.306531 176.770531,325.536735 187.95502,320.322857 C199.13951,315.107755 202.773796,323.240816 201.27502,336.79102 C199.776245,350.34 190.772571,370.306531 190.772571,370.306531 C190.772571,370.306531 223.03298,376.452245 216.445224,387.123673 C211.167673,389.560408 177.567673,387.405306 177.567673,383.741633 C177.567673,380.077959 180.27502,370.306531 180.27502,370.306531" id="Fill-1" fill="#927159"></path>
                <path d="M180.27502,370.306531 C180.27502,370.306531 176.770531,325.536735 187.95502,320.322857 C199.13951,315.107755 202.773796,323.240816 201.27502,336.79102 C199.776245,350.34 190.772571,370.306531 190.772571,370.306531 C190.772571,370.306531 223.03298,376.452245 216.445224,387.123673 C211.167673,389.560408 177.567673,387.405306 177.567673,383.741633 C177.567673,380.077959 180.27502,370.306531 180.27502,370.306531 Z" id="Stroke-3" stroke="#4A4A4B" stroke-width="3"></path>
                <path d="M36.1307755,177.839265 C36.5017959,176.635592 36.8740408,175.433143 37.2499592,174.231918 C56.7426122,111.868653 82.3589388,51.880898 88.1666939,47.1421224 C99.7013878,37.7319184 183.658531,23.6662041 187.799755,26.1323265 C189.918122,27.393551 235.48751,90.9053878 277.215673,154.86049 C315.163837,213.023755 349.794857,271.643755 351.379347,280.337633 L351.40751,280.346204 C351.401388,280.352327 351.391592,280.359673 351.385469,280.365796 C351.386694,280.375592 351.390367,280.386612 351.391592,280.395184 L351.363429,280.386612 C345.02302,286.543347 282.785878,314.142122 218.108327,339.442531 C146.991184,367.262939 73.0062857,392.491102 70.5499592,392.287837 C65.7450612,391.888653 5.57608163,331.670694 1.65281633,317.309878 C-0.322285714,310.08049 13.6724082,246.370286 34.0307755,184.283755 C34.4226122,183.088653 34.8181224,181.893551 35.2148571,180.698449 L36.1307755,177.839265 Z" id="Fill-5" fill="#EE4264"></path>
                <path d="M25.7908163,215.905469 L84.1010204,295.537714 C84.1010204,295.537714 92.9406122,253.35649 109.031633,198.079347 C123.292041,149.098531 141.947143,111.608327 141.947143,111.608327 L46.772449,150.40751 L25.7908163,215.905469 Z" id="Fill-7" fill="#E3385A"></path>
                <polygon id="Fill-9" fill="#4A4A4B" points="46.7722041 150.407755 141.948122 111.608571 42.5428163 162.497143"></polygon>
                <path d="M70.550449,392.287592 C73.0067755,392.492082 146.397796,367.424327 217.516163,339.605143 C276.141061,316.671673 343.638612,287.547184 351.406776,280.345959 L84.1006531,295.538204 C84.1006531,295.538204 79.1439184,313.839429 75.3418776,345.465551 C71.7186122,375.625959 70.550449,392.287592 70.550449,392.287592" id="Fill-11" fill="#E3385A"></path>
                <path d="M187.800122,26.1322041 C189.917265,27.3946531 235.127878,89.9085306 276.810735,153.894245 C311.171143,206.640367 349.152367,269.582816 351.285429,279.957918 L141.947878,111.608939 C141.947878,111.608939 155.561755,83.0097551 159.443388,75.0811837 C166.310327,61.0509796 187.800122,26.1322041 187.800122,26.1322041" id="Fill-13" fill="#E3385A"></path>
                <g id="Group-17" transform="translate(0.000000, 22.653061)">
                    <mask id="mask-2" fill="white">
                        <use xlink:href="#path-1"></use>
                    </mask>
                    <g id="Clip-16"></g>
                    <path d="M186.719143,0.772530612 C172.052204,0.772530612 98.8705714,13.6002857 88.0840408,22.381102 C82.1930204,27.1774286 56.1799592,87.8753878 36.3738367,150.973347 C35.9930204,152.188041 35.6146531,153.405184 35.2375102,154.623551 L34.306898,157.514571 C33.9040408,158.724367 33.5024082,159.934163 33.1032245,161.142735 C12.4203673,223.96151 -1.81187755,288.416204 0.186489796,295.727633 C4.15383673,310.251306 65.1150612,371.123143 69.9860816,371.523551 C69.997102,371.524776 70.006898,371.524776 70.0179184,371.524776 C73.0791429,371.524776 147.795061,346.044367 219.627306,317.968041 C285.217102,292.330898 348.339551,264.369673 354.771796,258.138245 L354.799959,258.146816 C354.79751,258.138245 354.795061,258.127224 354.792612,258.117429 C354.799959,258.111306 354.808531,258.103959 354.814653,258.096612 L354.78649,258.089265 C353.187306,249.29498 318.116694,190.022327 279.681184,131.213755 C237.416694,66.548449 191.259551,2.3337551 189.114245,1.05906122 C188.784857,0.864367347 187.963224,0.772530612 186.719143,0.772530612 M186.719143,4.446 L186.719143,4.446 C186.942,4.446 187.128122,4.44967347 187.281184,4.45457143 C193.61302,11.9521224 236.922,72.5055918 276.605265,133.223143 C314.397918,191.050898 345.612612,244.192531 350.53751,256.753347 C339.204857,264.128449 282.791388,289.335796 218.290163,314.546816 C150.482816,341.050898 79.8615918,365.300694 70.4415918,367.700694 C66.7240408,365.304367 52.8383265,352.617429 36.0848571,335.003143 C13.9877143,311.768449 4.88240816,298.979878 3.73506122,294.782327 C2.2975102,288.244776 15.4926122,226.373755 36.5917959,162.292531 C36.9897551,161.087633 37.3901633,159.88151 37.8040408,158.639878 L38.7456735,155.709673 C39.1215918,154.496204 39.4987347,153.283959 39.879551,152.074163 C60.0909796,87.6794694 85.4379184,29.6925306 90.4032245,25.2292653 C99.9615918,17.4464082 171.644449,4.446 186.719143,4.446" id="Fill-15" fill="#4A4A4B" mask="url(#mask-2)"></path>
                </g>
                <polygon id="Fill-18" fill="#4A4A4B" points="86.8191429 283.294776 44.257102 241.124571 84.1007755 295.538449 206.811796 288.563755"></polygon>
                <path d="M263.314286,214.777837 C254.71102,214.777837 246.177551,213.363551 237.950204,210.574163 C218.021633,203.818653 201.908571,189.727224 192.579184,170.89702 C183.253469,152.069265 181.826939,130.755796 188.564082,110.884776 C199.372653,78.9990612 229.299184,57.5766122 263.02898,57.5766122 C271.63102,57.5766122 280.16449,58.9896735 288.390612,61.7790612 C291.601224,62.8664082 294.759184,64.1668163 297.78,65.6423265 C298.102041,65.7990612 298.436327,65.8774286 298.773061,65.8774286 L298.77551,65.8774286 C299.363265,65.8774286 299.914286,65.6362041 300.319592,65.1990612 C301.158367,64.2917143 301.125306,62.941102 300.940408,60.481102 C301.381224,60.9402857 301.820816,61.4337551 302.267755,61.9382449 C303.279184,63.0733469 304.323673,64.2488571 305.572653,65.2162041 L306.068571,65.6019184 L306.799592,65.6386531 C308.376735,65.6374286 308.984082,64.2586531 309.855918,61.7325306 C310.185306,63.5962041 310.545306,65.5027347 312.268163,66.0537551 C312.81551,66.2300816 314.910612,66.8153878 319.354286,67.0957959 C319.981224,67.3357959 321.13102,69.9745714 321.97102,71.9006939 C324.562041,77.8443673 328.382449,86.6055918 338.643673,90.9598776 C338.166122,91.2892653 337.722857,91.6639592 337.387347,92.1121224 C336.412653,93.4186531 337.288163,94.7619184 338.587347,96.3966122 C338.441633,96.4088571 338.299592,96.4198776 338.169796,96.4296735 C337.453469,96.4847755 336.707755,96.543551 336.017143,96.6317143 L334.856327,96.7786531 L334.5,97.8941633 C334.012653,99.4162041 336.36,103.330898 339.258367,106.737429 C338.571429,106.867224 338.054694,107.191714 337.719184,107.706 C337.322449,108.312122 337.274694,109.06151 337.583265,109.763143 C341.990204,119.750082 342.26449,123.733347 342.641633,129.248449 C342.697959,130.070082 342.756735,130.921102 342.830204,131.823551 C343.806122,143.707224 339.493469,156.416204 337.87102,161.20151 L337.779184,161.469673 C326.969388,193.354163 297.044082,214.777837 263.316735,214.777837 L263.314286,214.777837 Z" id="Fill-20" fill="#C09B80"></path>
                <path d="M263.02849,55.7393878 C229.465224,55.7393878 198.170939,76.8226531 186.824816,110.295306 C172.569306,152.344286 195.195429,198.020204 237.35951,212.313673 C245.961551,215.229184 254.71298,216.615306 263.313796,216.615306 C296.878286,216.615306 328.170122,195.530816 339.518694,162.059388 C341.093388,157.413673 345.686449,144.169592 344.661551,131.673673 C344.086041,124.654898 344.463184,120.803878 339.265224,109.023061 C339.091347,108.63 339.441551,108.507551 340.004816,108.507551 C340.91951,108.507551 342.399918,108.828367 343.123592,108.828367 C343.519102,108.828367 343.688082,108.732857 343.411347,108.434082 C338.409306,103.833673 336.118286,98.8610204 336.249306,98.4532653 C338.684816,98.1434694 341.848898,98.2255102 341.597878,97.3683673 C341.408082,96.7206122 338.474204,93.7255102 338.859918,93.2112245 C339.905633,91.8104082 343.850939,90.8246939 341.747265,90.152449 C324.096245,84.51 324.152571,65.5573469 319.470122,65.2622449 C314.787673,64.9671429 312.944816,64.3414286 312.82849,64.3046939 C311.377469,63.8406122 311.967673,58.6818367 310.03298,57.0520408 C309.998694,57.0238776 309.963184,57.0104082 309.927673,57.0104082 C309.118286,57.0104082 307.621959,63.8014286 306.797878,63.8014286 C306.763592,63.8014286 306.729306,63.7904082 306.697469,63.7646939 C304.129714,61.7736735 302.312571,58.5618367 299.548898,56.9797959 C299.476653,56.9369388 299.410531,56.9173469 299.35298,56.9173469 C298.271755,56.9173469 299.944408,64.0414286 298.773796,64.0414286 C298.717469,64.0414286 298.657469,64.0255102 298.586449,63.9912245 C295.511755,62.49 292.307265,61.167551 288.981551,60.0397959 C280.380735,57.1242857 271.629306,55.7393878 263.02849,55.7393878 M263.02849,59.4128571 C271.429714,59.4128571 279.764816,60.7940816 287.802367,63.5197959 C290.937061,64.5814286 294.022776,65.8512245 296.976245,67.292449 C297.548082,67.5728571 298.155429,67.714898 298.773796,67.714898 C299.866041,67.714898 300.920327,67.2520408 301.667265,66.447551 C302.083592,65.9969388 302.366449,65.5022449 302.55502,64.9622449 C303.135429,65.554898 303.75502,66.1316327 304.445633,66.6679592 C305.116653,67.1883673 305.95298,67.474898 306.797878,67.474898 C308.006449,67.474898 308.881959,67.0438776 309.565224,66.325102 C310.070939,66.9704082 310.756653,67.4981633 311.703184,67.8018367 C312.40849,68.0308163 314.43502,68.5744898 318.484408,68.8769388 C318.985224,69.6495918 319.723592,71.3442857 320.288082,72.634898 C322.646449,78.0459184 326.368898,86.5855102 335.581959,91.525102 C334.946449,92.6687755 335.029714,93.7891837 335.454612,94.8508163 L333.462367,95.1042857 L332.749714,97.3353061 C332.044408,99.5418367 334.156653,103.167551 336.52849,106.243469 C336.393796,106.397755 336.278694,106.553265 336.180735,106.703878 C335.452163,107.823061 335.349306,109.243469 335.905224,110.505918 C340.178694,120.194082 340.444408,124.042653 340.809306,129.370408 C340.866857,130.201837 340.925633,131.061429 341.001551,131.973673 C341.944408,143.47898 337.719918,155.925918 336.129306,160.612041 L336.038694,160.880204 C325.482367,192.01898 296.257469,212.941837 263.313796,212.941837 C254.912571,212.941837 246.577469,211.559388 238.538694,208.834898 C219.074204,202.236122 203.335837,188.472857 194.226857,170.082245 C185.117878,151.694082 183.724408,130.880204 190.303592,111.47449 C200.859918,80.3344898 230.087265,59.4128571 263.02849,59.4128571" id="Fill-22" fill="#4A4A4B"></path>
                <path d="M326.235673,107.432204 C326.235673,107.432204 316.567102,108.405673 308.413224,102.541592 C300.261796,96.6775102 298.107918,87.2011837 298.107918,87.2011837 C298.107918,87.2011837 321.493224,59.1003673 334.333224,46.2873061 C359.404653,21.2673061 388.099347,0.612612245 388.099347,0.612612245 C388.099347,0.612612245 366.654857,32.3905714 350.98751,57.5024082 C335.320163,82.6142449 326.235673,107.432204 326.235673,107.432204" id="Fill-24" fill="#FEFEFE"></path>
                <path d="M326.235673,107.432204 C326.235673,107.432204 316.567102,108.405673 308.413224,102.541592 C300.261796,96.6775102 298.107918,87.2011837 298.107918,87.2011837 C298.107918,87.2011837 321.493224,59.1003673 334.333224,46.2873061 C359.404653,21.2673061 388.099347,0.612612245 388.099347,0.612612245 C388.099347,0.612612245 366.654857,32.3905714 350.98751,57.5024082 C335.320163,82.6142449 326.235673,107.432204 326.235673,107.432204 Z" id="Stroke-26" stroke="#4A4A4B" stroke-width="3" stroke-linecap="round" stroke-linejoin="round"></path>
                <path d="M281.582449,126.610286 C282.520408,123.841714 282.244898,120.969061 281.068163,118.337633 C279.27551,114.329878 275.392653,110.886612 270.52898,109.237224 C262.47551,106.506612 254.025306,109.957224 251.657143,116.942939 C249.287755,123.931102 254.747755,127.722122 263.506531,130.504163 C272.265306,133.286204 279.214286,133.596 281.582449,126.610286" id="Fill-28" fill="#4A4A4B"></path>
                <path d="M269.740531,117.952776 C270.579306,115.48298 269.06951,112.740122 266.371959,111.825429 C263.674408,110.910735 259.905429,112.077673 259.067878,114.547469 C258.231551,117.017265 260.951143,118.413184 263.887469,119.341347 C266.821347,120.270735 268.90298,120.422571 269.740531,117.952776" id="Fill-30" fill="#FEFEFE"></path>
                <path d="M285.495061,84.0843673 C287.171388,79.1386531 282.957918,73.2402857 276.083633,70.9100816 C269.208122,68.5798776 262.276286,70.6994694 260.599959,75.6451837 C258.923633,80.5896735 263.668531,83.5725306 271.135469,85.9725306 C278.603633,88.3713061 283.818735,89.0300816 285.495061,84.0843673" id="Fill-32" fill="#4A4A4B"></path>
                <path d="M274.802327,77.3114694 C275.50151,75.2482041 274.220694,72.9486122 271.940694,72.1759592 C269.661918,71.4033061 266.483143,72.3694286 265.783959,74.4314694 C265.084776,76.4947347 267.385592,77.6702449 269.865184,78.4563673 C272.344776,79.2412653 274.103143,79.3747347 274.802327,77.3114694" id="Fill-34" fill="#FEFEFE"></path>
                <path d="M131.39951,388.498041 C131.39951,388.498041 123.331347,338.177633 135.901959,332.317224 C148.472571,326.456816 152.557469,335.597633 150.872571,350.826612 C149.187673,366.056816 143.198694,388.498041 143.198694,388.498041 C143.198694,388.498041 177.474612,407.64049 170.070122,419.634367 C164.137469,422.374776 128.356653,408.940898 128.356653,404.822939 C128.356653,400.70498 131.39951,388.498041 131.39951,388.498041" id="Fill-36" fill="#C09B80"></path>
                <path d="M131.39951,388.498041 C131.39951,388.498041 123.331347,338.177633 135.901959,332.317224 C148.472571,326.456816 152.557469,335.597633 150.872571,350.826612 C149.187673,366.056816 143.198694,388.498041 143.198694,388.498041 C143.198694,388.498041 177.474612,407.64049 170.070122,419.634367 C164.137469,422.374776 128.356653,408.940898 128.356653,404.822939 C128.356653,400.70498 131.39951,388.498041 131.39951,388.498041 Z" id="Stroke-38" stroke="#4A4A4B" stroke-width="3"></path>
            </g>
        </g>
    </g>
</svg>