<svg xmlns="http://www.w3.org/2000/svg" width="318.45" height="345.5" viewBox="0 0 318.45 345.5"><path fill="#9B7557" d="M147.22 303.42s-2.86-36.57 6.28-40.82c9.13-4.26 12.1 2.38 10.87 13.45-1.22 11.06-8.57 27.37-8.57 27.37s26.34 5 20.96 13.73c-4.3 2-31.75.23-31.75-2.76 0-3 2.3-11 2.3-11"/><path fill="none" stroke="#524E4D" stroke-width="3" stroke-miterlimit="10" d="M147.22 303.42s-2.86-36.57 6.28-40.82c9.13-4.26 12.1 2.38 10.87 13.45-1.22 11.06-8.57 27.37-8.57 27.37s26.34 5 20.96 13.73c-4.3 2-31.75.23-31.75-2.76 0-3 2.3-11 2.3-11z"/><path fill="#E8365D" d="M29.5 146.24c.3-1 .6-1.97.92-2.95C46.34 92.3 67.26 43.3 72 39.5c9.42-7.7 78-19.17 81.37-17.16 1.73 1.03 38.94 52.9 73.02 105.13 30.9 47.5 59.2 95.37 60.5 102.47v.05-.1c-5.2 5-56 27.5-108.9 48.2-58 22.8-118.4 43.4-120.4 43.2-4-.3-53.1-49.5-56.3-61.2-1.6-5.9 9.8-57.9 26.4-108.6l.9-3 .7-2.4z"/><path fill="#DF2D51" d="M21.06 177.32l47.62 65.03s7.22-34.44 20.36-79.6c11.65-40 26.88-70.6 26.88-70.6L38.2 123.83l-17.14 53.5z"/><path fill="#524E4D" d="M38.2 123.83l77.72-31.68-81.18 41.56"/><path fill-rule="evenodd" clip-rule="evenodd" fill="#DF2D51" d="M57.62 321.37c2 .16 61.94-20.3 120.02-43.03 47.88-18.73 103-42.5 109.34-48.4l-218.3 12.42s-4.05 14.94-7.15 40.77c-2.96 24.63-3.9 38.24-3.9 38.24m95.74-299.03c1.73 1.03 38.65 52.1 72.7 104.34 28.05 43.08 59.07 94.48 60.8 102.95L115.93 92.15s11.12-23.36 14.3-29.83c5.6-11.46 23.15-39.98 23.15-39.98"/><path fill="#524E4D" d="M152.5 23.13h.45c5.17 6.13 40.54 55.58 72.95 105.17 30.86 47.22 56.35 90.62 60.37 100.88-9.25 6.02-55.32 26.6-108 47.2-55.38 21.64-113.05 41.45-120.74 43.4-3.04-1.95-14.38-12.3-28.06-26.7C11.42 274.1 4 263.68 3.05 260.24c-1.17-5.34 9.6-55.87 26.83-108.2l1-3 .76-2.38c.3-1 .62-1.98.93-2.97 16.5-52.6 37.2-100 41.26-103.6 7.8-6.4 66.35-17 78.66-17m0-3c-12 0-71.8 10.5-80.6 17.6-4.8 3.9-26.1 53.5-42.3 105-.3 1-.6 2-1 3l-.7 2.4-1 2.9C10.1 202.4-1.5 255 .1 261c3.27 11.87 53.06 61.58 57 61.9h.06c2.5 0 63.5-20.8 122.1-43.73 53.56-20.93 105.1-43.77 110.36-48.86l.02.1h-.02c-1.3-7.2-29.94-55.6-61.33-103.6-34.5-52.8-72.2-105.2-74-106.3-.3-.1-1-.2-2-.2"/><path fill="#524E4D" d="M70.9 232.36l-34.76-34.44 32.54 44.44 100.22-5.7"/><path fill-rule="evenodd" clip-rule="evenodd" fill="#C9A283" d="M215.04 176.4c-7.02 0-14-1.15-20.7-3.43-16.3-5.52-29.45-17.03-37.07-32.4-7.6-15.38-8.78-32.8-3.28-49C162.8 65.5 187.2 48 214.8 48c7.03 0 14 1.15 20.72 3.43 2.62.9 5.2 1.95 7.67 3.16.2.1.5.2.8.2.4 0 .9-.2 1.2-.6.7-.8.6-1.9.5-3.9l1.1 1.2c.8.9 1.6 1.9 2.7 2.7l.4.3h.6c1.3 0 1.8-1.1 2.5-3.2.2 1.5.5 3.1 1.9 3.5.4.1 2.1.6 5.8.8.5.2 1.4 2.3 2.1 3.9 2.1 4.8 5.2 12 13.6 15.5-.4.2-.8.6-1 .9-.8 1.1-.1 2.2 1 3.5h-.4c-.6 0-1.2.1-1.8.1l-.9.1-.3.9c-.4 1.22 1.5 4.42 3.9 7.2-.6.1-1 .33-1.3.8-.3.44-.4 1.1-.1 1.63 3.6 8.2 3.8 11.4 4.1 15.9l.1 2.15c.8 9.7-2.7 20.05-4.1 24l-.06.2c-8.6 26.24-33 43.74-60.6 43.74z"/><path fill="#524E4D" d="M214.8 49.52c6.87 0 13.67 1.13 20.24 3.35 2.56.87 5.08 1.9 7.5 3.1.46.2.95.33 1.46.33.9 0 1.75-.38 2.36-1.03.34-.37.57-.78.73-1.22.4.5.9.96 1.5 1.4.5.42 1.2.65 1.9.65 1 0 1.7-.35 2.2-.93.4.52.9.95 1.7 1.2.5.2 2.2.63 5.5.88.4.63 1 2 1.4 3.07 1.9 4.42 5 11.4 12.5 15.43-.5.93-.5 1.84-.1 2.7l-1.6.22-.6 1.82c-.6 1.8 1.1 4.7 3.1 7.2l-.3.4c-.6.9-.7 2.1-.2 3.1 3.5 7.9 3.7 11 4 15.4l.1 2.1c.7 9.4-2.7 19.5-4 23.4l-.1.2c-8.7 25.4-32.5 42.5-59.4 42.5-6.9 0-13.7-1.2-20.3-3.4-15.9-5.4-28.76-16.6-36.2-31.7-7.5-15.1-8.6-32.1-3.2-47.9 8.6-25.5 32.5-42.6 59.4-42.6m0-3c-27.47 0-53 17.2-62.3 44.5-11.6 34.3 6.87 71.6 41.3 83.3 7.04 2.34 14.2 3.5 21.2 3.5 27.4 0 53-17.2 62.24-44.58 1.3-3.8 5.07-14.6 4.2-24.8-.44-5.76-.13-8.9-4.4-18.5-.1-.3.17-.4.6-.4.8 0 2 .22 2.6.22.3 0 .42-.1.2-.34-4.1-3.73-5.97-7.8-5.87-8.13 2-.26 4.6-.2 4.4-.9-.14-.56-2.54-3-2.23-3.4.85-1.2 4.07-2 2.35-2.5-14.4-4.6-14.37-20.1-18.2-20.35-3.8-.2-5.3-.73-5.4-.76-1.2-.4-.7-4.6-2.3-5.9 0-.06-.05-.07-.1-.07-.6 0-1.85 5.5-2.5 5.5h-.06c-2.1-1.64-3.6-4.26-5.85-5.56-.1 0-.1-.06-.2-.06-.9 0 .5 5.84-.5 5.84 0 0-.1 0-.1-.03-2.5-1.25-5.1-2.3-7.85-3.25-7-2.37-14.17-3.5-21.2-3.5"/><path fill="#FFF" d="M266.43 88.74s-7.9.8-14.56-4-8.42-12.53-8.42-12.53 19.1-22.9 29.6-33.4c20.46-20.4 43.9-37.3 43.9-37.3s-17.5 26-30.3 46.5-20.22 40.8-20.22 40.8"/><path fill="none" stroke="#524E4D" stroke-width="3" stroke-linecap="round" stroke-linejoin="round" stroke-miterlimit="10" d="M266.43 88.74s-7.9.8-14.56-4-8.42-12.53-8.42-12.53 19.1-22.9 29.6-33.4c20.46-20.4 43.9-37.3 43.9-37.3s-17.5 26-30.3 46.5-20.22 40.8-20.22 40.8z"/><path fill="#524E4D" d="M229.96 104.4c.76-2.26.54-4.6-.42-6.76-1.46-3.27-4.64-6.08-8.6-7.43-6.58-2.2-13.5.6-15.42 6.3-1.94 5.7 2.52 8.8 9.68 11.1 7.15 2.3 12.83 2.5 14.76-3.2"/><path fill="#FFF" d="M220.3 97.33c.67-2.02-.56-4.26-2.76-5s-5.28.2-5.97 2.22c-.68 2 1.54 3.15 3.94 3.9 2.4.77 4.1.9 4.8-1.12"/><path fill="#524E4D" d="M233.16 69.67c1.36-4.04-2.08-8.86-7.7-10.76-5.6-1.9-11.27-.1-12.64 3.9-1.37 4.1 2.5 6.5 8.6 8.5s10.37 2.5 11.74-1.5"/><path fill="#FFF" d="M224.42 64.14c.57-1.7-.47-3.57-2.33-4.2-1.9-.63-4.5.16-5.1 1.85-.6 1.6 1.3 2.6 3.3 3.2 2 .6 3.4.7 4-1"/><path fill="#C9A283" d="M107.3 318.27s-6.58-41.1 3.7-45.88c10.25-4.8 13.6 2.6 12.2 15.1s-6.25 30.7-6.25 30.7 28 15.6 21.94 25.4c-4.9 2.2-34.1-8.8-34.1-12.1 0-3.4 2.5-13.4 2.5-13.4"/><path fill="none" stroke="#524E4D" stroke-width="3" stroke-miterlimit="10" d="M107.3 318.27s-6.58-41.1 3.7-45.88c10.25-4.8 13.6 2.6 12.2 15.1s-6.25 30.7-6.25 30.7 28 15.6 21.94 25.4c-4.9 2.2-34.1-8.8-34.1-12.1 0-3.4 2.5-13.4 2.5-13.4z"/></svg>