<?xml version="1.0" encoding="utf-8"?>
<!-- Generator: Adobe Illustrator 16.0.4, SVG Export Plug-In . SVG Version: 6.00 Build 0)  -->
<!DOCTYPE svg PUBLIC "-//W3C//DTD SVG 1.1//EN" "http://www.w3.org/Graphics/SVG/1.1/DTD/svg11.dtd">
<svg version="1.1" id="Layer_1" xmlns="http://www.w3.org/2000/svg" xmlns:xlink="http://www.w3.org/1999/xlink" x="0px" y="0px"
	 width="318.448px" height="345.499px" viewBox="0 0 318.448 345.499" enable-background="new 0 0 318.448 345.499"
	 xml:space="preserve">
<g>
	<path fill="#9B7557" d="M171.224,303.417c0,0,2.862-36.562-6.272-40.82c-9.134-4.26-12.102,2.383-10.878,13.449
		c1.225,11.064,8.577,27.371,8.577,27.371s-26.346,5.018-20.966,13.733c4.311,1.989,31.75,0.229,31.75-2.763
		C173.435,311.396,171.224,303.417,171.224,303.417"/>
	<path fill="none" stroke="#524E4D" stroke-width="3" stroke-miterlimit="10" d="M171.224,303.417c0,0,2.862-36.562-6.272-40.82
		c-9.134-4.26-12.102,2.383-10.878,13.449c1.225,11.064,8.577,27.371,8.577,27.371s-26.346,5.018-20.966,13.733
		c4.311,1.989,31.75,0.229,31.75-2.763C173.435,311.396,171.224,303.417,171.224,303.417z"/>
	<path fill="#E8365D" d="M288.941,146.235c-0.303-0.983-0.607-1.965-0.914-2.946c-15.919-50.93-36.839-99.92-41.582-103.79
		c-9.42-7.685-77.985-19.172-81.367-17.158c-1.729,1.03-38.944,52.898-73.022,105.128c-30.991,47.5-59.273,95.373-60.567,102.474
		l-0.022,0.006c0.005,0.006,0.013,0.012,0.018,0.017c-0.001,0.008-0.004,0.017-0.005,0.024l0.022-0.008
		c5.179,5.028,56.006,27.567,108.825,48.229c58.079,22.72,118.5,43.323,120.506,43.157c3.925-0.326,53.062-49.504,56.267-61.232
		c1.612-5.904-9.816-57.934-26.442-108.638c-0.32-0.976-0.643-1.952-0.967-2.928L288.941,146.235z"/>
	<path fill="#DF2D51" d="M297.386,177.322l-47.62,65.032c0,0-7.219-34.447-20.36-79.59c-11.646-40.001-26.881-70.618-26.881-70.618
		l77.727,31.686L297.386,177.322z"/>
	<polygon fill="#524E4D" points="280.251,123.833 202.524,92.146 283.705,133.706 	"/>
	<path fill-rule="evenodd" clip-rule="evenodd" fill="#DF2D51" d="M260.832,321.368c-2.006,0.166-61.942-20.306-120.022-43.025
		c-47.877-18.729-103-42.514-109.344-48.395l218.3,12.407c0,0,4.049,14.946,7.153,40.774
		C259.878,307.761,260.832,321.368,260.832,321.368"/>
	<path fill-rule="evenodd" clip-rule="evenodd" fill="#DF2D51" d="M165.078,22.341c-1.729,1.031-38.651,52.084-72.692,104.339
		c-28.061,43.076-59.078,94.479-60.82,102.952L202.524,92.147c0,0-11.118-23.356-14.288-29.831
		C182.628,50.858,165.078,22.341,165.078,22.341"/>
	<path fill="#524E4D" d="M165.961,23.13c12.311,0,70.852,10.617,78.658,16.973c4.055,3.645,24.755,51.001,41.261,103.589
		c0.312,0.989,0.619,1.979,0.926,2.97l0.77,2.393c0.338,1.014,0.665,1.999,0.989,2.983c17.231,52.333,28.008,102.861,26.834,108.201
		c-0.938,3.428-8.373,13.871-26.42,32.846c-13.682,14.386-25.021,24.746-28.058,26.703c-7.693-1.959-65.367-21.764-120.743-43.408
		c-52.676-20.59-98.747-41.176-108.002-47.198c4.022-10.258,29.514-53.657,60.378-100.883
		c32.408-49.586,67.777-99.038,72.948-105.161C165.627,23.134,165.779,23.13,165.961,23.13L165.961,23.13 M165.961,20.13
		c-1.016,0-1.688,0.075-1.956,0.234c-1.752,1.041-39.447,53.483-73.963,106.293c-31.389,48.027-60.03,96.433-61.336,103.615
		l-0.023,0.006c0.005,0.006,0.013,0.012,0.019,0.018c-0.002,0.008-0.004,0.017-0.006,0.023l0.022-0.007
		c5.253,5.089,56.803,27.925,110.368,48.861c58.663,22.929,119.681,43.737,122.181,43.737c0.01,0,0.018,0,0.026,0
		c3.978-0.328,53.763-50.039,57.003-61.9c1.632-5.971-9.991-58.609-26.882-109.911c-0.326-0.987-0.654-1.975-0.983-2.963
		l-0.76-2.362c-0.308-0.994-0.617-1.988-0.928-2.98c-16.175-51.53-37.419-101.1-42.23-105.017
		C237.704,30.606,177.938,20.13,165.961,20.13"/>
	<polygon fill="#524E4D" points="247.546,232.356 282.305,197.918 249.766,242.356 149.552,236.66 	"/>
	<path fill-rule="evenodd" clip-rule="evenodd" fill="#C9A283" d="M103.408,176.401c7.026,0,13.995-1.154,20.714-3.433
		c16.275-5.517,29.435-17.025,37.053-32.403c7.616-15.376,8.781-32.782,3.279-49.01c-8.827-26.04-33.267-43.535-60.812-43.535
		c-7.025,0-13.994,1.154-20.713,3.432c-2.621,0.888-5.2,1.95-7.668,3.155c-0.263,0.128-0.535,0.192-0.811,0.192h-0.002
		c-0.48,0-0.93-0.197-1.261-0.554c-0.686-0.741-0.658-1.844-0.507-3.854c-0.36,0.375-0.72,0.778-1.084,1.19
		c-0.826,0.927-1.68,1.887-2.699,2.677l-0.405,0.315l-0.597,0.03c-1.288-0.001-1.784-1.127-2.496-3.189
		c-0.27,1.521-0.563,3.079-1.97,3.529c-0.447,0.144-2.158,0.622-5.787,0.851c-0.513,0.196-1.451,2.351-2.138,3.924
		C53.39,64.572,50.27,71.727,41.89,75.283c0.39,0.269,0.752,0.575,1.025,0.941c0.796,1.067,0.081,2.164-0.979,3.499
		c0.119,0.01,0.234,0.019,0.341,0.027c0.585,0.045,1.193,0.093,1.758,0.165l0.948,0.12l0.291,0.911
		c0.397,1.243-1.52,4.44-3.886,7.222c0.561,0.106,0.982,0.371,1.257,0.791c0.323,0.495,0.362,1.107,0.11,1.68
		c-3.599,8.156-3.822,11.409-4.131,15.913c-0.046,0.671-0.094,1.366-0.154,2.103c-0.797,9.705,2.726,20.084,4.051,23.992
		l0.074,0.219c8.828,26.039,33.268,43.535,60.812,43.535H103.408z"/>
	<path fill="#524E4D" d="M103.642,49.52c26.902,0,50.771,17.086,59.392,42.517c5.373,15.848,4.235,32.846-3.203,47.863
		c-7.439,15.019-20.293,26.259-36.188,31.648c-6.565,2.225-13.372,3.354-20.233,3.354c-26.903,0-50.771-17.086-59.392-42.516
		l-0.074-0.219c-1.299-3.827-4.749-13.992-3.979-23.388c0.062-0.745,0.109-1.447,0.156-2.126c0.299-4.351,0.516-7.494,4.006-15.406
		c0.454-1.031,0.37-2.191-0.226-3.105c-0.08-0.123-0.174-0.25-0.284-0.376c1.938-2.512,3.662-5.473,3.086-7.275l-0.582-1.822
		l-1.627-0.207c0.348-0.867,0.415-1.782-0.104-2.716c7.524-4.034,10.564-11.008,12.49-15.427c0.461-1.054,1.063-2.438,1.473-3.069
		c3.307-0.247,4.962-0.691,5.538-0.878c0.773-0.248,1.333-0.679,1.746-1.206c0.558,0.587,1.272,0.939,2.26,0.939
		c0.69,0,1.373-0.234,1.921-0.659c0.564-0.438,1.07-0.909,1.544-1.393c0.154,0.44,0.386,0.845,0.726,1.213
		c0.609,0.657,1.471,1.035,2.362,1.035c0.506,0,1.001-0.116,1.469-0.345c2.411-1.177,4.932-2.214,7.491-3.081
		C89.974,50.648,96.78,49.52,103.642,49.52 M103.642,46.52c-7.024,0-14.171,1.131-21.195,3.512
		c-2.716,0.921-5.333,2.001-7.844,3.227c-0.058,0.028-0.107,0.041-0.153,0.041c-0.956,0,0.41-5.818-0.473-5.818
		c-0.047,0-0.101,0.016-0.16,0.051c-2.257,1.292-3.741,3.915-5.838,5.541c-0.026,0.021-0.054,0.03-0.082,0.03
		c-0.673,0-1.895-5.546-2.556-5.546c-0.029,0-0.059,0.011-0.086,0.034c-1.58,1.331-1.099,5.544-2.283,5.923
		c-0.095,0.03-1.6,0.541-5.424,0.782c-3.824,0.241-3.778,15.719-18.193,20.327c-1.718,0.549,1.504,1.354,2.358,2.498
		c0.314,0.42-2.081,2.866-2.236,3.395c-0.205,0.7,2.379,0.633,4.368,0.886c0.106,0.333-1.764,4.394-5.85,8.151
		c-0.226,0.244-0.088,0.322,0.235,0.322c0.591,0,1.8-0.262,2.547-0.262c0.46,0,0.746,0.1,0.604,0.421
		c-4.245,9.621-3.938,12.766-4.407,18.498c-0.837,10.205,2.914,21.021,4.2,24.815c9.268,27.335,34.823,44.553,62.233,44.553
		c7.024,0,14.172-1.131,21.196-3.512c34.435-11.674,52.912-48.976,41.271-83.316C156.608,63.738,131.052,46.52,103.642,46.52"/>
	<path fill="#FFFFFF" d="M52.022,88.736c0,0,7.896,0.795,14.555-3.994c6.657-4.789,8.416-12.528,8.416-12.528
		S55.896,49.265,45.409,38.801C24.935,18.368,1.5,1.5,1.5,1.5s17.514,25.952,30.309,46.46
		C44.604,68.468,52.022,88.736,52.022,88.736"/>
	<path fill="none" stroke="#524E4D" stroke-width="3" stroke-linecap="round" stroke-linejoin="round" stroke-miterlimit="10" d="
		M52.022,88.736c0,0,7.896,0.795,14.555-3.994c6.657-4.789,8.416-12.528,8.416-12.528S55.896,49.265,45.409,38.801
		C24.935,18.368,1.5,1.5,1.5,1.5s17.514,25.952,30.309,46.46C44.604,68.468,52.022,88.736,52.022,88.736z"/>
	<path fill="#524E4D" d="M88.489,104.398c-0.766-2.261-0.541-4.607,0.42-6.756c1.464-3.273,4.635-6.085,8.607-7.432
		c6.576-2.23,13.478,0.588,15.412,6.293c1.935,5.706-2.524,8.803-9.678,11.075C96.099,109.85,90.423,110.103,88.489,104.398"/>
	<path fill="#FFFFFF" d="M98.16,97.328c-0.685-2.017,0.548-4.257,2.751-5.004s5.281,0.206,5.965,2.223
		c0.684,2.017-1.538,3.157-3.936,3.915C100.544,99.221,98.844,99.345,98.16,97.328"/>
	<path fill="#524E4D" d="M85.294,69.668c-1.369-4.039,2.072-8.856,7.686-10.759c5.615-1.903,11.276-0.172,12.646,3.867
		c1.369,4.038-2.506,6.474-8.604,8.434C90.922,73.169,86.663,73.708,85.294,69.668"/>
	<path fill="#FFFFFF" d="M94.026,64.137c-0.571-1.685,0.475-3.563,2.337-4.194c1.861-0.631,4.457,0.158,5.028,1.842
		c0.57,1.685-1.309,2.645-3.333,3.287C96.033,65.713,94.598,65.822,94.026,64.137"/>
	<path fill="#C9A283" d="M211.139,318.272c0,0,6.589-41.094-3.677-45.881c-10.267-4.785-13.603,2.68-12.227,15.117
		s6.268,30.764,6.268,30.764s-27.992,15.633-21.945,25.429c4.845,2.237,34.066-8.733,34.066-12.097
		C213.624,328.242,211.139,318.272,211.139,318.272"/>
	<path fill="none" stroke="#524E4D" stroke-width="3" stroke-miterlimit="10" d="M211.139,318.272c0,0,6.589-41.094-3.677-45.881
		c-10.267-4.785-13.603,2.68-12.227,15.117s6.268,30.764,6.268,30.764s-27.992,15.633-21.945,25.429
		c4.845,2.237,34.066-8.733,34.066-12.097C213.624,328.242,211.139,318.272,211.139,318.272z"/>
</g>
</svg>
