<?xml version="1.0" encoding="utf-8"?>
<!-- Generator: Adobe Illustrator 16.0.4, SVG Export Plug-In . SVG Version: 6.00 Build 0)  -->
<!DOCTYPE svg PUBLIC "-//W3C//DTD SVG 1.1//EN" "http://www.w3.org/Graphics/SVG/1.1/DTD/svg11.dtd">
<svg version="1.1" id="Layer_1" xmlns="http://www.w3.org/2000/svg" xmlns:xlink="http://www.w3.org/1999/xlink" x="0px" y="0px"
	 width="318.449px" height="345.5px" viewBox="0 0 318.449 345.5" enable-background="new 0 0 318.449 345.5" xml:space="preserve">
<path fill="#9B7557" d="M147.225,303.417c0,0-2.862-36.562,6.272-40.82c9.134-4.26,12.102,2.383,10.878,13.449
	c-1.225,11.064-8.577,27.371-8.577,27.371s26.346,5.018,20.966,13.733c-4.311,1.989-31.75,0.229-31.75-2.763
	C145.014,311.396,147.225,303.417,147.225,303.417"/>
<path fill="none" stroke="#524E4D" stroke-width="3" stroke-miterlimit="10" d="M147.225,303.417c0,0-2.862-36.562,6.272-40.82
	c9.134-4.26,12.102,2.383,10.878,13.449c-1.225,11.064-8.577,27.371-8.577,27.371s26.346,5.018,20.966,13.733
	c-4.311,1.989-31.75,0.229-31.75-2.763C145.014,311.396,147.225,303.417,147.225,303.417z"/>
<path fill="#E8365D" d="M29.507,146.235c0.303-0.983,0.607-1.965,0.914-2.946c15.919-50.93,36.839-99.92,41.582-103.79
	c9.42-7.685,77.985-19.172,81.367-17.158c1.729,1.03,38.944,52.898,73.022,105.128c30.991,47.5,59.273,95.373,60.567,102.474
	l0.022,0.006c-0.005,0.006-0.013,0.012-0.018,0.017c0.001,0.008,0.004,0.017,0.005,0.024l-0.022-0.008
	c-5.179,5.028-56.006,27.567-108.825,48.229c-58.079,22.72-118.5,43.323-120.506,43.157c-3.925-0.326-53.062-49.504-56.267-61.232
	c-1.612-5.904,9.816-57.934,26.442-108.638c0.32-0.976,0.643-1.952,0.967-2.928L29.507,146.235z"/>
<path fill="#DF2D51" d="M21.063,177.322l47.62,65.032c0,0,7.219-34.447,20.36-79.59c11.646-40.001,26.881-70.618,26.881-70.618
	l-77.727,31.686L21.063,177.322z"/>
<polygon fill="#524E4D" points="38.198,123.833 115.924,92.146 34.744,133.706 "/>
<path fill-rule="evenodd" clip-rule="evenodd" fill="#DF2D51" d="M57.617,321.368c2.006,0.166,61.942-20.306,120.022-43.025
	c47.877-18.729,103-42.514,109.344-48.395l-218.3,12.407c0,0-4.049,14.946-7.153,40.774
	C58.571,307.761,57.617,321.368,57.617,321.368"/>
<path fill-rule="evenodd" clip-rule="evenodd" fill="#DF2D51" d="M153.371,22.341c1.729,1.031,38.651,52.084,72.692,104.339
	c28.061,43.076,59.078,94.479,60.82,102.952L115.924,92.147c0,0,11.118-23.356,14.288-29.831
	C135.821,50.858,153.371,22.341,153.371,22.341"/>
<path fill="#524E4D" d="M152.488,23.13L152.488,23.13c0.182,0,0.334,0.003,0.459,0.007c5.171,6.123,40.54,55.575,72.948,105.161
	c30.864,47.226,56.355,90.625,60.378,100.883c-9.255,6.022-55.326,26.608-108.002,47.198
	c-55.376,21.645-113.05,41.449-120.743,43.408c-3.036-1.957-14.376-12.317-28.058-26.703C11.423,274.11,3.988,263.667,3.05,260.239
	c-1.174-5.34,9.603-55.867,26.834-108.201c0.324-0.984,0.651-1.969,0.989-2.983l0.77-2.393c0.307-0.991,0.614-1.981,0.926-2.97
	C49.075,91.104,69.775,43.749,73.83,40.104C81.636,33.748,140.177,23.13,152.488,23.13 M152.488,20.13
	c-11.978,0-71.743,10.476-80.552,17.647c-4.812,3.917-26.056,53.487-42.23,105.017c-0.311,0.992-0.62,1.986-0.928,2.98l-0.76,2.362
	c-0.329,0.988-0.657,1.976-0.983,2.963C10.144,202.401-1.479,255.04,0.153,261.011c3.24,11.861,53.025,61.572,57.003,61.9
	c0.009,0,0.017,0,0.026,0c2.5,0,63.518-20.809,122.181-43.737c53.565-20.937,105.115-43.772,110.368-48.861l0.022,0.007
	c-0.002-0.007-0.004-0.016-0.006-0.023c0.006-0.006,0.014-0.012,0.019-0.018l-0.023-0.006
	c-1.306-7.182-29.947-55.588-61.336-103.615c-34.516-52.81-72.211-105.252-73.963-106.293
	C154.175,20.206,153.503,20.13,152.488,20.13"/>
<polygon fill="#524E4D" points="70.903,232.356 36.144,197.918 68.683,242.356 168.897,236.66 "/>
<path fill-rule="evenodd" clip-rule="evenodd" fill="#C9A283" d="M215.041,176.401c-7.026,0-13.995-1.154-20.714-3.433
	c-16.275-5.517-29.435-17.025-37.053-32.403c-7.616-15.376-8.781-32.782-3.279-49.01c8.827-26.04,33.267-43.535,60.812-43.535
	c7.025,0,13.994,1.154,20.713,3.432c2.621,0.888,5.2,1.95,7.668,3.155c0.263,0.128,0.535,0.192,0.811,0.192H244
	c0.48,0,0.93-0.197,1.261-0.554c0.686-0.741,0.658-1.844,0.507-3.854c0.36,0.375,0.72,0.778,1.084,1.19
	c0.826,0.927,1.68,1.887,2.699,2.677l0.405,0.315l0.597,0.03c1.288-0.001,1.784-1.127,2.496-3.189
	c0.27,1.521,0.563,3.079,1.97,3.529c0.447,0.144,2.158,0.622,5.787,0.851c0.513,0.196,1.451,2.351,2.138,3.924
	c2.115,4.854,5.235,12.009,13.615,15.565c-0.39,0.269-0.752,0.575-1.025,0.941c-0.796,1.067-0.081,2.164,0.979,3.499
	c-0.119,0.01-0.234,0.019-0.341,0.027c-0.585,0.045-1.193,0.093-1.758,0.165l-0.948,0.12l-0.291,0.911
	c-0.397,1.243,1.52,4.44,3.886,7.222c-0.561,0.106-0.982,0.371-1.257,0.791c-0.323,0.495-0.362,1.107-0.11,1.68
	c3.599,8.156,3.822,11.409,4.131,15.913c0.046,0.671,0.094,1.366,0.154,2.103c0.797,9.705-2.726,20.084-4.051,23.992l-0.074,0.219
	c-8.828,26.039-33.268,43.535-60.812,43.535H215.041z"/>
<path fill="#524E4D" d="M214.807,49.52c6.861,0,13.668,1.128,20.232,3.354c2.56,0.867,5.08,1.904,7.491,3.081
	c0.468,0.229,0.963,0.345,1.469,0.345c0.892,0,1.753-0.378,2.362-1.035c0.34-0.368,0.571-0.772,0.726-1.213
	c0.474,0.484,0.979,0.955,1.544,1.393c0.548,0.425,1.23,0.659,1.921,0.659c0.987,0,1.702-0.352,2.26-0.939
	c0.413,0.527,0.973,0.958,1.746,1.206c0.576,0.187,2.231,0.631,5.538,0.878c0.409,0.631,1.012,2.015,1.473,3.069
	c1.926,4.419,4.966,11.393,12.49,15.427c-0.519,0.934-0.451,1.849-0.104,2.716l-1.627,0.207l-0.582,1.822
	c-0.576,1.802,1.148,4.763,3.086,7.275c-0.11,0.126-0.204,0.253-0.284,0.376c-0.596,0.914-0.68,2.074-0.226,3.105
	c3.49,7.912,3.707,11.055,4.006,15.406c0.047,0.679,0.095,1.381,0.156,2.126c0.771,9.396-2.68,19.561-3.979,23.388l-0.074,0.219
	c-8.621,25.43-32.488,42.516-59.392,42.516c-6.861,0-13.668-1.129-20.233-3.354c-15.896-5.389-28.749-16.629-36.188-31.648
	c-7.438-15.017-8.576-32.015-3.203-47.863C164.037,66.606,187.905,49.52,214.807,49.52 M214.807,46.52
	c-27.41,0-52.967,17.218-62.233,44.554c-11.642,34.34,6.836,71.642,41.271,83.316c7.024,2.381,14.172,3.512,21.196,3.512
	c27.41,0,52.966-17.218,62.233-44.553c1.286-3.794,5.037-14.61,4.2-24.815c-0.47-5.732-0.162-8.877-4.407-18.498
	c-0.142-0.321,0.145-0.421,0.604-0.421c0.747,0,1.956,0.262,2.547,0.262c0.323,0,0.461-0.078,0.235-0.322
	c-4.086-3.757-5.956-7.818-5.85-8.151c1.989-0.253,4.573-0.186,4.368-0.886c-0.155-0.529-2.551-2.975-2.236-3.395
	c0.854-1.144,4.076-1.949,2.358-2.498c-14.415-4.608-14.369-20.086-18.193-20.327c-3.824-0.241-5.329-0.752-5.424-0.782
	c-1.185-0.379-0.703-4.592-2.283-5.923c-0.027-0.023-0.057-0.034-0.086-0.034c-0.661,0-1.883,5.546-2.556,5.546
	c-0.028,0-0.056-0.009-0.082-0.03c-2.097-1.626-3.581-4.249-5.838-5.541c-0.06-0.035-0.113-0.051-0.16-0.051
	c-0.883,0,0.483,5.818-0.473,5.818c-0.046,0-0.096-0.013-0.153-0.041c-2.511-1.226-5.128-2.306-7.844-3.227
	C228.978,47.651,221.832,46.52,214.807,46.52"/>
<path fill="#FFFFFF" d="M266.426,88.736c0,0-7.896,0.795-14.555-3.994c-6.657-4.789-8.416-12.528-8.416-12.528
	s19.098-22.949,29.584-33.413C293.514,18.368,316.949,1.5,316.949,1.5s-17.514,25.952-30.309,46.46
	C273.845,68.468,266.426,88.736,266.426,88.736"/>
<path fill="none" stroke="#524E4D" stroke-width="3" stroke-linecap="round" stroke-linejoin="round" stroke-miterlimit="10" d="
	M266.426,88.736c0,0-7.896,0.795-14.555-3.994c-6.657-4.789-8.416-12.528-8.416-12.528s19.098-22.949,29.584-33.413
	C293.514,18.368,316.949,1.5,316.949,1.5s-17.514,25.952-30.309,46.46C273.845,68.468,266.426,88.736,266.426,88.736z"/>
<path fill="#524E4D" d="M229.959,104.398c0.766-2.261,0.541-4.607-0.42-6.756c-1.464-3.273-4.635-6.085-8.607-7.432
	c-6.576-2.23-13.478,0.588-15.412,6.293c-1.935,5.706,2.524,8.803,9.678,11.075C222.35,109.85,228.026,110.103,229.959,104.398"/>
<path fill="#FFFFFF" d="M220.289,97.328c0.685-2.017-0.548-4.257-2.751-5.004s-5.281,0.206-5.965,2.223
	c-0.684,2.017,1.538,3.157,3.936,3.915C217.905,99.221,219.605,99.345,220.289,97.328"/>
<path fill="#524E4D" d="M233.155,69.668c1.369-4.039-2.072-8.856-7.686-10.759c-5.615-1.903-11.276-0.172-12.646,3.867
	c-1.369,4.038,2.506,6.474,8.604,8.434C227.527,73.169,231.786,73.708,233.155,69.668"/>
<path fill="#FFFFFF" d="M224.422,64.137c0.571-1.685-0.475-3.563-2.337-4.194c-1.861-0.631-4.457,0.158-5.028,1.842
	c-0.57,1.685,1.309,2.645,3.333,3.287C222.416,65.713,223.851,65.822,224.422,64.137"/>
<path fill="#C9A283" d="M107.31,318.272c0,0-6.589-41.094,3.677-45.881c10.267-4.785,13.603,2.68,12.227,15.117
	s-6.268,30.764-6.268,30.764s27.992,15.633,21.945,25.429c-4.845,2.237-34.066-8.733-34.066-12.097
	C104.825,328.242,107.31,318.272,107.31,318.272"/>
<path fill="none" stroke="#524E4D" stroke-width="3" stroke-miterlimit="10" d="M107.31,318.272c0,0-6.589-41.094,3.677-45.881
	c10.267-4.785,13.603,2.68,12.227,15.117s-6.268,30.764-6.268,30.764s27.992,15.633,21.945,25.429
	c-4.845,2.237-34.066-8.733-34.066-12.097C104.825,328.242,107.31,318.272,107.31,318.272z"/>
</svg>
