<svg xmlns="http://www.w3.org/2000/svg" width="318.45" height="345.5" viewBox="0 0 318.45 345.5"><path fill="#9B7557" d="M171.22 303.42s2.87-36.57-6.27-40.82c-9.13-4.26-12.1 2.38-10.88 13.45 1.23 11.06 8.58 27.37 8.58 27.37s-26.34 5-20.96 13.73c4.3 2 31.7.23 31.7-2.76 0-3-2.2-11-2.2-11"/><path fill="none" stroke="#524E4D" stroke-width="3" stroke-miterlimit="10" d="M171.22 303.42s2.87-36.57-6.27-40.82c-9.13-4.26-12.1 2.38-10.88 13.45 1.23 11.06 8.58 27.37 8.58 27.37s-26.34 5-20.96 13.73c4.3 2 31.7.23 31.7-2.76 0-3-2.2-11-2.2-11z"/><path fill="#E8365D" d="M288.94 146.24l-.9-2.95c-15.94-51-36.84-100-41.6-103.8-9.42-7.7-77.98-19.2-81.36-17.2-1.73 1-38.95 52.9-73.02 105.1-31 47.5-59.28 95.3-60.57 102.4h-.1c5.1 5 56 27.5 108.8 48.2 58 22.7 118.5 43.3 120.5 43.1 3.9-.4 53-49.5 56.2-61.3 1.6-5.9-9.9-58-26.5-108.7l-1-3-.8-2.4z"/><path fill="#DF2D51" d="M297.4 177.32l-47.63 65.03s-7.22-34.44-20.36-79.6c-11.6-40-26.8-70.6-26.8-70.6l77.8 31.68 17.2 53.5z"/><path fill="#524E4D" d="M280.25 123.83l-77.73-31.68 81.18 41.56"/><path fill-rule="evenodd" clip-rule="evenodd" fill="#DF2D51" d="M260.83 321.37c-2 .16-61.94-20.3-120.02-43.03-47.8-18.73-103-42.5-109.3-48.4l218.3 12.42s4.1 14.94 7.2 40.77c3 24.63 3.9 38.24 3.9 38.24M165.1 22.34c-1.73 1.03-38.65 52.1-72.7 104.34-28.05 43.08-59.07 94.48-60.8 102.95L202.5 92.15s-11.1-23.36-14.28-29.83c-5.6-11.46-23.16-39.98-23.16-39.98"/><path fill="#524E4D" d="M165.96 23.13c12.3 0 70.85 10.62 78.66 16.97 4.05 3.65 24.75 51 41.26 103.6l.93 2.96.8 2.4 1 2.98c17.2 52.33 28 102.86 26.8 108.2-.9 3.43-8.3 13.87-26.4 32.85-13.7 14.3-25 24.7-28 26.7-7.7-2-65.3-21.8-120.7-43.5-52.7-20.6-98.7-41.2-108-47.2 4-10.3 29.5-53.7 60.4-100.9 32.4-49.6 67.8-99 72.9-105.1h.5m0-3c-1 0-1.7 0-1.9.2-1.7 1-39.4 53.5-74 106.3-31.4 48.1-60.1 96.5-61.4 103.6h.1c5.3 5.1 56.8 27.9 110.4 48.8 58.6 23 119.6 43.8 122.1 43.8 4-.3 53.8-50 57-61.9 1.6-5.9-10-58.6-26.9-109.9-.3-1-.6-2-1-2.9l-.7-2.4-.9-3c-16.1-51.5-37.4-101.1-42.2-105-8.8-7.2-68.5-17.7-80.5-17.7"/><path fill="#524E4D" d="M247.55 232.36l34.76-34.44-32.5 44.44-100.2-5.7"/><path fill-rule="evenodd" clip-rule="evenodd" fill="#C9A283" d="M103.4 176.4c7.03 0 14-1.15 20.72-3.43 16.28-5.52 29.44-17.03 37.05-32.4 7.62-15.38 8.8-32.8 3.28-49C155.63 65.5 131.2 48 103.65 48c-7.03 0-14 1.15-20.72 3.43-2.62.9-5.2 1.95-7.67 3.16-.26.1-.53.2-.8.2-.5 0-.94-.2-1.27-.6-.7-.8-.7-1.9-.6-3.9-.4.3-.7.7-1.1 1.2-.9.9-1.7 1.9-2.7 2.7l-.4.3h-.6c-1.3 0-1.8-1.1-2.5-3.2-.3 1.5-.6 3.1-2 3.5-.5.1-2.2.6-5.8.8-.5.2-1.5 2.3-2.2 3.9-2.1 4.8-5.3 12-13.6 15.5.3.2.7.6 1 .9.8 1.1.1 2.2-1 3.5h.3c.5 0 1.2.1 1.7.1l.9.1.3.9c.4 1.2-1.5 4.4-3.9 7.2.6.1 1 .3 1.2.8.3.4.4 1.1.1 1.6-3.6 8.2-3.8 11.4-4.1 15.9l-.2 2.1c-.8 9.7 2.7 20 4 24l.1.2c8.86 26 33.3 43.5 60.8 43.5z"/><path fill="#524E4D" d="M103.64 49.52c26.9 0 50.77 17.1 59.4 42.52 5.37 15.85 4.23 32.84-3.2 47.86-7.45 15.02-20.3 26.26-36.2 31.65-6.56 2.22-13.37 3.35-20.23 3.35-26.9 0-50.7-17.08-59.3-42.5l-.1-.23c-1.3-3.83-4.7-14-4-23.4l.2-2.12c.3-4.35.5-7.5 4-15.4.5-1.03.4-2.2-.2-3.1 0-.13-.1-.26-.2-.38 2-2.52 3.7-5.48 3.1-7.28l-.5-1.9-1.6-.2c.4-.9.4-1.8-.1-2.7 7.5-4.1 10.6-11 12.5-15.5.5-1.1 1.1-2.5 1.5-3.1 3.3-.3 5-.7 5.6-.9.8-.3 1.3-.7 1.7-1.2.6.6 1.3.9 2.3.9.7 0 1.4-.3 1.9-.7.6-.5 1.1-.9 1.6-1.4.2.4.4.8.7 1.2.6.6 1.5 1 2.4 1 .5 0 1-.1 1.5-.4 2.4-1.2 4.93-2.2 7.5-3.1 6.6-2.2 13.4-3.4 20.23-3.4m0-3c-7.04 0-14.2 1.12-21.2 3.5-2.7.92-5.35 2-7.86 3.23l-.16.02c-1 0 .4-5.8-.5-5.8H74c-2.24 1.3-3.7 3.9-5.8 5.53l-.2.2c-.7 0-1.9-5.5-2.58-5.5h-.1c-1.58 1.3-1.1 5.5-2.3 5.9-.08 0-1.6.52-5.4.8-3.84.2-3.8 15.7-18.2 20.3-1.7.53 1.5 1.34 2.35 2.5.3.4-2.1 2.85-2.24 3.4-.2.7 2.35.6 4.34.9.1.3-1.77 4.4-5.85 8.1-.24.26-.1.34.2.34.6 0 1.8-.26 2.57-.26.4 0 .7.1.6.4-4.3 9.6-4 12.7-4.4 18.5-.9 10.2 2.9 21 4.2 24.8 9.2 27.4 34.8 44.6 62.2 44.6 7 0 14.1-1.1 21.2-3.5 34.4-11.7 52.9-49 41.2-83.3-9.3-27.4-34.9-44.6-62.3-44.6"/><path fill="#FFF" d="M52.02 88.74s7.9.8 14.56-4c6.65-4.8 8.4-12.53 8.4-12.53S55.9 49.3 45.42 38.8C24.95 18.37 1.5 1.5 1.5 1.5S19 27.45 31.8 47.96c12.8 20.5 20.22 40.78 20.22 40.78"/><path fill="none" stroke="#524E4D" stroke-width="3" stroke-linecap="round" stroke-linejoin="round" stroke-miterlimit="10" d="M52.02 88.74s7.9.8 14.56-4c6.65-4.8 8.4-12.53 8.4-12.53S55.9 49.3 45.42 38.8C24.95 18.37 1.5 1.5 1.5 1.5S19 27.45 31.8 47.96c12.8 20.5 20.22 40.78 20.22 40.78z"/><path fill="#524E4D" d="M88.5 104.4c-.78-2.26-.55-4.6.4-6.76 1.47-3.27 4.64-6.08 8.62-7.43 6.57-2.2 13.47.6 15.4 6.3 1.94 5.7-2.52 8.8-9.67 11.1-7.15 2.3-12.83 2.5-14.76-3.2"/><path fill="#FFF" d="M98.16 97.33c-.7-2.02.55-4.26 2.75-5s5.3.2 6 2.22c.7 2-1.5 3.15-3.9 3.9-2.4.77-4.1.9-4.8-1.12"/><path fill="#524E4D" d="M85.3 69.67c-1.38-4.04 2.07-8.86 7.68-10.76 5.6-1.9 11.28-.1 12.65 3.9 1.36 4.1-2.5 6.5-8.6 8.5s-10.37 2.5-11.74-1.5"/><path fill="#FFF" d="M94.03 64.14c-.58-1.7.47-3.57 2.33-4.2 1.86-.63 4.46.16 5.03 1.85.5 1.6-1.4 2.6-3.4 3.2-2.1.6-3.5.7-4.1-1"/><path fill="#C9A283" d="M211.14 318.27s6.6-41.1-3.68-45.88c-10.26-4.8-13.6 2.6-12.22 15.1s6.26 30.7 6.26 30.7-28 15.6-21.94 25.4c4.84 2.2 34.06-8.8 34.06-12.1 0-3.4-2.48-13.4-2.48-13.4"/><path fill="none" stroke="#524E4D" stroke-width="3" stroke-miterlimit="10" d="M211.14 318.27s6.6-41.1-3.68-45.88c-10.26-4.8-13.6 2.6-12.22 15.1s6.26 30.7 6.26 30.7-28 15.6-21.94 25.4c4.84 2.2 34.06-8.8 34.06-12.1 0-3.4-2.48-13.4-2.48-13.4z"/></svg>