<svg xmlns="http://www.w3.org/2000/svg" xmlns:xlink="http://www.w3.org/1999/xlink" width="814.62" height="410.13" viewBox="0 0 814.62 410.13"><path fill="#9B7557" d="M664.55 288.26s-2.86-36.56 6.27-40.82c9.13-4.25 12.1 2.4 10.88 13.45-1.23 11-8.58 27.3-8.58 27.3s26.35 5 20.97 13.7c-4.4 2-31.8.2-31.8-2.8s2.2-11 2.2-11"/><path fill="none" stroke="#524E4D" stroke-width="3" stroke-miterlimit="10" d="M664.55 288.26s-2.86-36.56 6.27-40.82c9.13-4.25 12.1 2.4 10.88 13.45-1.23 11-8.58 27.3-8.58 27.3s26.35 5 20.97 13.7c-4.4 2-31.8.2-31.8-2.8s2.2-11 2.2-11z"/><path fill="#E8365D" d="M585.7 106.18l1.66-2.6c28.78-44.94 61.87-86.68 67.47-89.17 11.1-4.9 80.28 2.1 83 4.9 1.4 1.5 23.64 61.3 42.75 120.7 17.38 54 32.04 107.6 31.42 114.8l.02.1H812v.1h-.02c-6.32 3.5-61.3 11.8-117.7 17.9-62 6.6-125.72 10.6-127.6 9.9-3.7-1.3-38.15-61.7-38.15-73.9 0-6.1 24.73-53.3 54.14-97.8l1.7-2.5 1.34-2z"/><path fill="#DF2D51" d="M569.37 133.94l28.8 75.3s16.04-31.34 40.6-71.43c21.78-35.5 44.55-61 44.55-61L600 86.9l-30.63 47.08z"/><path fill="#524E4D" d="M600 86.86l83.32-10.08-89.26 18.7"/><path fill-rule="evenodd" clip-rule="evenodd" fill="#DF2D51" d="M566.67 282.53c1.9.7 65.1-3.27 127.12-9.88 51.1-5.45 110.5-13.85 118.2-17.85l-213.9-45.6s-7.9 13.36-17.7 37.45c-9.4 22.98-13.9 35.85-13.9 35.85M737.8 19.3c1.4 1.47 23.56 60.45 42.63 119.8 15.7 48.98 32.1 106.74 31.53 115.37L683.33 76.77s16.88-19.6 21.65-25c8.42-9.58 32.87-32.46 32.87-32.46"/><path fill="#524E4D" d="M672.6 14c23.64 0 58.9 4.06 64.6 5.94 3.35 7.18 24.46 64.26 42.68 120.7 17.33 53.68 30.48 102.26 31.65 113.22-10.5 3.37-60.38 11.1-116.62 17.07-57.8 6.14-117.7 10.04-127.6 10.04h-.3c-2.4-2.7-10.6-15.68-20-33.14-12.4-23.06-16.8-35.1-16.8-38.65.3-5.46 24-51.36 54.4-97.3l1.8-2.62 1.4-2.1 1.7-2.63c29.8-46.38 62.3-86.6 67.1-89.05 1-.45 4.6-1.48 16.2-1.48m0-3c-8.1 0-14.6.5-17.4 1.74-5.6 2.5-39.2 44.73-68.4 90.17l-1.6 2.7-1.3 2.1-1.7 2.6c-29.8 45.1-54.9 92.8-54.9 99 0 12.3 34.9 73.4 38.7 74.8.2.1.7.1 1.5.1 10.2 0 69.8-3.8 128-10 57.2-6 112.9-14.5 119.3-18v-.1c.6-7.2-14.2-61.5-31.9-116.1-19.4-60.2-42-120.7-43.4-122.1-2.1-2.2-42.2-6.7-66.8-6.7"/><path fill="#524E4D" d="M602.94 200.17l-24.45-42.4 19.6 51.46 98.1 20.9"/><path fill-rule="evenodd" clip-rule="evenodd" fill="#C9A283" d="M743.02 213.1c-3.7 0-7.1-.36-10.08-1.07-.73-.18-1.4-.33-2.07-.48-4.4-1-7.58-1.7-15.1-6.5-.3-.2-.64-.3-.97-.3-.95 0-1.42.56-1.66 1.28-2.46-2.85-5.2-4.96-6.3-4.96h-.13l-1 .17-.2.92c-.1.55-.3 1.15-.4 1.72v.33c-1-1.1-1.7-1.6-2.5-1.6h-.4l-.4.2c-.4.2-.7.5-1.1.9-2.2-8.8-8.8-13-13.3-15.8-1.4-.9-3.4-2.1-3.5-2.7.4-3.6.1-5.3.1-5.8-.2-1.4-1.7-1.9-3.2-2.4 2-.3 3-.6 3.4-1.5.3-.4.2-1 0-1.5-.6-1.1-1.4-2.1-2.2-3-.3-.4-.7-.8-1-1.3 1 .3 1.9.5 2.6.5.8 0 1.4-.2 1.7-.7.4-.4.4-1 .3-1.6-.8-2.6-1.5-5.3-1.9-8-6.2-34.9 17.2-68.3 52-74.5 3.7-.6 7.5-1 11.2-1 31.2 0 57.7 22.4 63.2 53.2 3 17-.8 34-10.6 48.1-9.8 14.1-24.5 23.4-41.4 26.4l-.2.1c-2.6.5-8.1 1.5-14.3 1.5"/><path fill="#524E4D" d="M746.34 85.42c30.43 0 56.37 21.86 61.68 51.96 6.02 34.12-16.76 66.76-50.8 72.76l-.2.04c-2.6.46-8 1.4-14 1.4-3.6 0-6.87-.33-9.73-1-.8-.2-1.5-.34-2.1-.5-4.3-.95-7.4-1.64-14.6-6.3-.6-.34-1.2-.52-1.8-.52-.6 0-1.2.15-1.7.5-2.3-2.36-4.8-4.18-6.3-4.18h-.3l-.3.03-1.9.4-.5 1.6c-.5-.3-1.1-.4-1.7-.4-.4 0-.7.1-1.1.2-2.9-8-9.3-12.1-13.4-14.7-1-.6-2.3-1.4-2.8-1.9.2-3.3 0-5-.1-5.6-.1-.8-.5-1.4-.9-1.9.4-.3.7-.7 1-1.2.4-.9.4-2-.1-2.8-.4-.6-.8-1.2-1.2-1.7 1.1-.2 1.8-.8 2.1-1.3.6-.8.8-1.9.5-2.9-.8-2.5-1.5-5.2-1.9-7.8-6.1-34.1 16.7-66.7 50.8-72.7 3.6-.6 7.3-.9 10.9-.9m0-3c-3.8 0-7.6.4-11.5 1-35.7 6.3-59.6 40.5-53.3 76.3.5 2.8 1.1 5.6 2 8.3.1.3-.2.4-.6.4-1.2 0-3.7-.8-4.8-.8-.4 0-.6.1-.5.3.9 2.5 3.3 4.3 4.6 6.7.4.8-6.3 1.1-5.9 1.9 1.1 1.8 5.3 1.9 5.5 3.2 0 .1.3 1.7-.1 5.5-.3 3.8 15 6.1 17.4 21.1.1.4.2.5.3.5.5 0 1.5-2 2.5-2.5h.1c.6 0 2.5 2.5 2.9 2.7h.1c.6 0 .9-2.4 1.4-4.2.4 0 4.1 2.5 7.2 7 0 .1.1.2.2.2.4 0-.1-3.5.6-3.5 0 0 .1 0 .2.1 8.9 5.7 12 5.86 17.6 7.2 3.4.8 7 1.1 10.4 1.1 6.4 0 12.1-1.05 14.7-1.5 35.7-6.3 59.5-40.43 53.2-76.24-5.6-32-33.3-54.5-64.6-54.5"/><path fill="#FFF" d="M715.3 195.6s2-7.68-1.74-14.98c-3.72-7.3-11.1-10.22-11.1-10.22s-25.58 15.4-37.52 24.17c-23.3 17.13-43.53 37.74-43.53 37.74s28.4-13.3 50.6-22.9c22.3-9.5 43.4-13.8 43.4-13.8"/><path fill="none" stroke="#524E4D" stroke-width="3" stroke-linecap="round" stroke-linejoin="round" stroke-miterlimit="10" d="M715.3 195.6s2-7.68-1.74-14.98c-3.72-7.3-11.1-10.22-11.1-10.22s-25.58 15.4-37.52 24.17c-23.3 17.13-43.53 37.74-43.53 37.74s28.4-13.3 50.6-22.9c22.3-9.5 43.4-13.8 43.4-13.8z"/><path fill="#524E4D" d="M736.32 161.94c-2.35.4-4.64-.17-6.62-1.44-3-1.94-5.3-5.5-6.04-9.63-1.2-6.84 2.63-13.24 8.56-14.28 5.94-1.1 8.32 3.8 9.48 11.2 1.16 7.4.55 13-5.38 14.1"/><path fill="#FFF" d="M730.8 151.3c-2.1.38-4.13-1.18-4.53-3.47-.4-2.3 1-5.2 3.1-5.56 2.1-.37 2.9 2 3.27 4.48.4 2.5.25 4.2-1.84 4.56"/><path fill="#524E4D" d="M701.5 159.83c-4.2.74-8.43-3.4-9.46-9.23-1.03-5.84 1.54-11.17 5.74-11.9 4.2-.75 6.02 3.45 7.03 9.77 1.1 6.33.9 10.62-3.3 11.36"/><path fill="#FFF" d="M697.36 150.36c-1.75.3-3.44-1-3.8-2.95s.85-4.3 2.6-4.6c1.75-.3 2.4 1.7 2.74 3.8.33 2.1.22 3.6-1.54 3.9"/><path fill="#C9A283" d="M624.63 303.12s-6.6-41.1 3.68-45.88c10.3-4.8 13.6 2.68 12.3 15.12s-6.2 30.76-6.2 30.76 28 15.64 22 25.43c-4.8 2.24-34-8.73-34-12.1s2.5-13.33 2.5-13.33"/><path fill="none" stroke="#524E4D" stroke-width="3" stroke-miterlimit="10" d="M624.63 303.12s-6.6-41.1 3.68-45.88c10.3-4.8 13.6 2.68 12.3 15.12s-6.2 30.76-6.2 30.76 28 15.64 22 25.43c-4.8 2.24-34-8.73-34-12.1s2.5-13.33 2.5-13.33z"/><defs><path id="a" d="M255.4 249.12c-14.1 1.98-23.8 4.42-29.04 7.34.86 10.66-.5 28.73-4.08 54.23-1.63 10.8-2.6 18.1-2.92 21.9-5.63 4-10.7 6.4-15.18 7-3.1.4-4.82-1.5-5.16-5.6s.97-15.2 3.93-32.9c2.95-17.8 4.2-29.3 3.8-34.5-.43-5.3-1.12-8.9-2.05-10.8-17.2 2.4-30.98 5.4-41.35 9v3.1c6.08 5.2 9.26 9.6 9.55 13.3.3 3.6-.93 13.7-3.66 30.2s-3.84 28.1-3.3 34.6c.52 6.5 2.67 11.3 6.45 14.4 3.7 3 8.3 4.2 13.7 3.4 10.2-1.4 21.2-8.1 32.9-20 .8 4.4 3.1 7.7 6.8 10 3.7 2.3 8 3.1 13 2.4 10.4-1.5 22-8.9 34.9-22.2l-5-6.8c-7.7 4.8-11.9 7.3-12.8 7.4-1.6.2-2.5-1.5-2.8-5.1-.3-3.7.9-16.3 3.5-38s3.7-36.2 3.1-43.4l-4.4.6zM78.7 231.98c-12.3 1.3-22.46 4.76-30.5 10.42l-.15 1.65c3.93 3.8 5.97 7.46 6.14 11.02.4 10.22-2.6 31.03-9.2 62.44-6.7 31.5-10.1 52.1-10.5 62.1 1.2.4 3.2.4 5.8.1 11.2-1.1 21.3-3.5 30.4-7.1.6-16.1 4.2-40.6 10.8-73.7 6.5-33 9.6-52.9 9.3-59.7-.2-3.1-.7-5.4-1.5-7-1.2-.2-2.8-.4-4.6-.4-1.8 0-3.9.1-6.2.4M473 220.4c-14.1 2-23.8 4.42-29.03 7.35-2.45 41.58-3.67 65.26-3.67 71.04-5.94 5.7-12.33 9-19.15 9.9-2.46.3-3.9-1.9-4.3-6.7-.36-4.8.5-15.3 2.65-31.6s3-27 2.56-32.3c-.4-5.3-1.1-8.9-2.04-11-14.57 2-25.9 5.2-34 9.7.77 1.9 1.26 4 1.44 6.3.9 10.8.43 24.5-1.36 41.2-1.8 16.7-2.54 26.7-2.27 30.1 1.15 14.2 8.16 20.4 21.02 18.6 5.9-.8 12.43-3.8 19.7-8.8 7.3-5 12.62-9.6 16.05-13.9.4 17.6-2.74 42.5-2.87 43-2.3 10-2.63 11-9.5 12.1-12.9-1.1-23.4-8.7-32.2-14.2-8.8-5.5-13.65-11.6-21.26-8.7-3.64 1.6-7.5 3.8-14.2 8.2-6.73 4.4-13.77 10.8-16.78 13.3-.5.6-.1 5.7 0 6.4 0 .9 3.2-.6 8.2-2.1 5.4-1.6 12.9-3.2 21.1-1.8 10.3 1.6 16.4 7.1 19.5 8.9 6.9 3.8 15.7 8.7 23.1 10.5 7.4 1.7 15.5 3.7 23.5 1.5 7.9-2.2 14.6-8.6 17.3-13.3 3.8-6.1 5-8.9 7.6-18.4 2.5-9.5 2.5-17.5 3.8-25.6 1.2-8.2 2.7-24.8 4.6-54.8 1.9-30 3.5-48.8 4.7-56.3l-4.4.6zM89.4 204.05c-26 2.7-47.55 9.86-64.7 21.45C7.58 237.1-.64 250.5.05 265.7c.42 9.13 3.4 16.1 8.93 20.87 5.54 4.8 11.36 7.35 17.47 7.65 3.03-5.6 4.7-11.55 5.05-17.8-3.47-.57-6.98-2.04-10.53-4.4-3.55-2.36-5.42-5.6-5.6-9.8-.4-8.67 5.56-17.54 17.9-26.6 12.32-9.07 28.44-14.64 48.36-16.7 13.85-1.47 24.2 0 31.05 4.43 6.85 4.4 10.53 12.13 11.03 23.1.4 7.6-1.2 15.16-4.8 22.7-3.5 7.5-7.5 13.2-11.9 17.1-3.8-1.63-7.8-2.23-11.9-1.8-4.1.44-6.5 1.8-7.2 4.14-.6 2.3-.9 5.5-.7 9.7.2 4.1.9 6.7 2 7.7 1.5.9 3.7 1.2 6.6.9 3-.3 11.3 12.3 12.2 14.3s7.5 18.5 12.8 38.8c2.7 9.5 4.2 15 4.8 16.5 4.2 15.3 17.4 26.2 27.5 30.3 10.2 4.1 12.9 4 23.9.8 11.1-3.3 24.3-10.3 31.7-17.1l-3.2-5.9c-.2.1-1.6 0-2.9 0-1-.1-2-.1-2.5 0-4.5.4-19.9-.3-29.4-5.2s-16.9-13-23.7-28.8l-3.6-7.6c-.8-1.8-6.2-17-8.5-21.6-2.3-4.6-10.9-23.3-13.7-25.6 11-6.6 20.2-14.6 27.8-23.8 7.6-9.3 11.1-19.2 10.6-29.7-.7-15.1-7.3-25.8-19.8-32.3-9.3-4.9-21-7.3-35-7.3-4.7 0-9.7.3-14.9.8m219 126.5c.1-13.1 3-35 8.7-65.8 5.8-3.4 10.2-5.3 13.2-5.6 6.1-.7 13.6-.1 14.2 13 .6 13.1-.4 20.3-3.9 31.5s-12.6 26.7-18.7 28.4c-1.7.4-3.2.6-4.5.6-3.2 0-5.5-1.2-8.9-2.3m-2-153.6c-5.5 4.1-9.2 6.1-11.6 7.1-2.2.9-3.2 1-5 1.9-.5 1.8-.2 1 0 3.5 1.1 13.9-1.1 43.7-6.7 82.7s-8.2 61.8-7.6 68.5 1.3 10.4 2.3 11c9.5-1.3 19-4.4 28.7-9.2l3.6 1.1c2.4.9 6 1.6 10.6 2s10.7-.7 14.9-3.2c12.2-7.3 19.1-14.5 26.6-27.4s11.9-31 10.2-52.5c-1-12.9-4.3-16.4-10.1-21.9s-12.5-4.1-20-3.1c-7.5 1-15.6 5.5-24.4 13.5 3.5-24.1 7.2-47.2 9.2-59.8.9-5.9 1.5-9.5 1.5-9.8 0-.6-7.5-1.4-11.7-6.1-1.4-1.5-2.7-2.1-4-2.1-2.6 0-4.7 2.3-6 3.3M196 89.4l-.1 3.04 2.2 2.6c4.3 5.3 6.6 11.2 6.9 17.7.2 4.35-1.3 13.95-4.53 28.83-3.22 14.87-4.7 25.14-4.45 30.8.25 5.63 2 9.96 5.3 12.96 3.24 3 7.6 4.2 13.05 3.63 5.43-.6 11.27-2.8 17.5-6.65s10.48-6.8 12.73-8.9c2.24-2.1 4.03-3.8 5.4-5.2l-4.36-7.7-2.73 1.7c-6.1 3.6-9.6 5.5-10.5 5.5-1.4.2-2.2-2.2-2.4-7.1-.3-4.8 1.4-15.4 4.8-31.7 3.5-16.3 5.1-27.7 4.8-34.2-.3-6.5-1.5-10.8-3.6-12.9-18.5 2-31.8 4.5-40 7.7m180.5-26l-3.1 3.4c-2.2 2.4-4.5 6.4-6.9 12.1-2.4 5.7-3.7 11.9-4 18.6l16.7 16c-.2 6-3.6 13.7-10.2 23.1s-12.9 14.5-18.8 15.2c-2.5.3-3.9-2.6-4.1-8.7-.2-6.1.6-16.1 2.7-29.9 2-13.8 2.9-24.6 2.5-32.2s-1.6-12.1-3.6-13.2c-9.5 1-20.1 4.4-31.9 10.1 1.1 4.3 1.8 9.4 2.1 15.4.3 6.1-.2 15.9-1.4 29.4s-1.9 21.5-1.9 24c-5.5 6.7-10.6 10.2-15.5 10.7-2.9.4-4.6-2.5-4.8-8.7-.3-6.1.4-15.5 1.9-28.1 1.5-12.7 2.1-22.4 1.8-29.1-.3-6.7-1.9-11.5-4.8-14.3-2.9-2.8-6.2-4-10-3.6-3.8.4-7.8 1.1-12.2 2-1.8.5-3.6 1-5.3 1.5-1.7.5-3.2 1-4.5 1.4l-3.4 1.2c-1 .3-2 .7-3.1 1.2l-.4 2.8c5.9 5 8.9 10.1 9.2 15.4l.2 60.9c.3 6.1 2.2 11 5.6 15 3.5 3.9 8.6 5.5 15.5 4.8 10.3-1.1 20.6-7.6 31-19.6 1.5 4.7 4.1 8.3 7.9 11 3.8 2.67 8.4 3.7 13.7 3.16 10.6-1.1 20.8-7 30.6-17.6 9.8-10.6 17.5-23 22.9-37.26 5.5-14.26 7.9-27.5 7.4-39.7-.2-4.8-2.1-8.8-5.7-12-2.9-2.6-6.9-3.95-11.9-3.95-1.1 0-2.27.1-3.47.2m28.7-.8l-.1 3.1 2.2 2.6c4.3 5.3 6.6 11.2 6.9 17.7.2 4.4-1.3 14-4.56 28.85-3.2 14.83-4.7 25.1-4.44 30.74.2 5.65 2 10 5.3 13 3.2 3 7.6 4.2 13 3.64 5.4-.54 11.3-2.74 17.5-6.6s10.5-6.8 12.75-8.9c2.23-2.1 4.02-3.84 5.4-5.22l-4.37-7.7-2.8 1.7c-6.1 3.6-9.6 5.4-10.5 5.5-1.4.2-2.2-2.2-2.4-7.1-.22-4.82 1.4-15.42 4.88-31.72s5.1-27.7 4.8-34.2c-.3-6.5-1.5-10.8-3.63-12.9-18.5 1.98-31.83 4.5-40 7.7M104 27.58C91.4 28.7 81 32.3 72.67 38.2l-.17 1.67c3.98 3.8 6 7.46 6.2 11.02.45 10.2-2.8 34.9-9.75 74.2S58.3 188.9 58 198.6c1.3.3 3.24.3 5.9.1 11.2-1.2 21.4-3.6 30.4-7.2.6-24.4 6.2-61.7 16.7-112.1.5-2.4 1.3-6.4 2.3-11.9 1-5.6 1.6-9.8 1.9-12.7.3-2.9.6-6.3.9-10.2.3-3.9.4-7.3.26-10.3-.15-3-.65-5.38-1.5-7-1.2-.27-2.75-.4-4.6-.4-1.78 0-3.84.12-6.2.36m122.43-1.6c-5.6.6-10.5 3.05-14.6 7.4-4.1 4.3-6 9-5.8 14.1.3 5.1 2 9 5.2 11.7 3.2 2.7 7.6 3.8 13 3.2 5.4-.54 10.3-3 14.5-7.32s6.3-9 6.1-14.07-2-8.9-5.3-11.7c-2.7-2.3-6.2-3.4-10.5-3.4-.9 0-1.8.02-2.8.12m-44.8-5.2c-2.7.6-6.8 2.1-12.1 4.6-5.2 2.5-10.4 5.6-15.4 9.4 1 4.9 1.6 9.5 1.9 14 .4 10-1.3 19.2-5.3 27.6-7.8 11.4-14.4 19.2-19.8 23.5-4.2-2.2-8.5-3.1-12.9-2.6-4.5.4-7 1.8-7.7 4.1-.7 2.3-1 5.6-.8 9.7.2 4.1.8 6.7 2 7.7 1.4.9 3.5 1.2 6.3.9 2.8-.3 4.7-.6 5.6-.8 3.2 5.1 28 52.7 36 73.9 8.8 23.5 15 41.2 26.2 45 9.7 3.3 16.6 3.5 26.5 2.5 9.8-1 18.3-4.9 25.7-11.8l-2.7-8.1c-.5.2-1.2.3-2.1.4-4.5.4-12.5.6-20.9-2.4-11.3-3.9-14-12.9-19.4-23.1-5.4-10.2-8.1-15.5-15-30.7-7.6-17.7-32.1-53.6-35.6-56.5 14.1-10 26.2-21.7 36.3-35.2 10.1-13.4 14.9-26.2 14.3-38.5-.4-8-2.7-13.1-7.1-15.1l-4.2.9zM435.4.1c-5.6.6-10.46 3.06-14.56 7.38-4.1 4.4-6.03 9.1-5.8 14.2.24 5.1 1.98 9 5.23 11.7 3.3 2.7 7.6 3.76 13.1 3.2 5.44-.6 10.3-3 14.55-7.36 4.27-4.34 6.3-9.02 6.06-14.05-.23-5-2-8.9-5.23-11.7C446 1.2 442.5 0 438.2 0c-.9 0-1.85.06-2.83.16"/></defs><clipPath id="b"><use xlink:href="#a" overflow="visible"/></clipPath><path clip-path="url(#b)" fill="#DF2E51" d="M-5-5h487.5v420.13H-5z"/></svg>