<svg width="478" height="411" viewBox="0 0 478 411" xmlns="http://www.w3.org/2000/svg"><path d="M192.62 34.8c.56 12.22-4.2 25.04-14.3 38.46-10.1 13.42-22.2 25.14-36.27 35.17 3.4 2.9 27.97 38.8 35.55 56.5 6.9 15.2 9.6 20.5 15.02 30.66 5.4 10.1 8.02 19.1 19.34 23 8.47 2.9 16.4 2.8 20.92 2.3.94-.1 1.63-.3 2.1-.5l2.7 8.1c-7.34 6.8-15.92 10.7-25.72 11.8-9.8 1-16.78.8-26.5-2.5-11.18-3.8-17.32-21.5-26.18-45-8-21.3-32.78-68.8-35.98-73.9-.93.2-2.8.5-5.6.8-2.8.3-4.92 0-6.37-1-1.14-1-1.8-3.6-2-7.7-.2-4.2.05-7.5.73-9.8.67-2.4 3.23-3.8 7.66-4.2 4.44-.5 8.74.4 12.9 2.6 5.44-4.3 12.04-12.2 19.8-23.6 4-8.4 5.77-17.6 5.3-27.6-.2-4.5-.8-9.2-1.8-14.1 4.98-3.8 10.1-7 15.4-9.5 5.27-2.5 9.3-4.1 12.1-4.7l4.18-.9c4.3 2 6.65 7 7.02 15.1zm-114 15.88c-.17-3.56-2.22-7.23-6.15-11.02l.16-1.65c8.34-5.8 18.73-9.4 31.18-10.7 4.9-.5 8.5-.5 10.8.1.9 1.6 1.4 4 1.5 7 .2 3 .1 6.5-.2 10.3-.3 3.9-.5 7.2-.8 10.1-.2 2.9-.9 7.2-1.9 12.7-1 5.6-1.7 9.5-2.2 11.9-10.5 50.4-16 87.8-16.7 112.1-9 3.6-19.2 6-30.4 7.2-2.6.3-4.6.3-5.8-.1.4-9.6 4-34.1 11-73.4 6.8-39.4 10.1-64.2 9.6-74.4zm156.05 78.3c-3.48 16.3-5.1 26.9-4.88 31.77.2 4.88 1 7.24 2.4 7.1.9-.1 4.4-1.95 10.5-5.54l2.7-1.6 4.3 7.7c-1.4 1.4-3.2 3.1-5.4 5.2-2.3 2.1-6.5 5.1-12.7 8.9-6.3 3.9-12.1 6.1-17.5 6.6-5.5.6-9.8-.6-13.1-3.6-3.3-3-5.1-7.3-5.3-13-.3-5.6 1.2-15.9 4.4-30.8s4.7-24.5 4.5-28.8c-.3-6.5-2.6-12.4-6.9-17.7l-2.2-2.5.1-3c8.1-3.2 21.4-5.7 40-7.7 2.1 2.1 3.3 6.4 3.6 12.9.3 6.5-1.3 17.9-4.8 34.2zM205.82 47.2c-.23-5.1 1.7-9.82 5.8-14.14s8.96-6.77 14.56-7.36c5.6-.58 10.03.5 13.3 3.28 3.24 2.77 4.98 6.67 5.2 11.7.25 5.03-1.77 9.7-6.03 14.05-4.25 4.33-9.1 6.78-14.55 7.35-5.45.57-9.8-.5-13.05-3.18-3.25-2.7-5-6.6-5.23-11.7zm57.1 112.4l-.2-60.85c-.25-5.27-3.3-10.4-9.16-15.38l.34-2.83c1.08-.43 2.12-.8 3.12-1.15l3.46-1.2c1.3-.5 2.8-.9 4.5-1.4 1.7-.5 3.5-1 5.34-1.5 4.33-.9 8.4-1.6 12.22-2 3.82-.4 7.15.8 10.02 3.6 2.86 2.8 4.45 7.6 4.76 14.3.3 6.7-.3 16.4-1.83 29.1-1.6 12.6-2.2 22-1.9 28.2.3 6.1 1.9 9 4.8 8.7 4.8-.5 9.9-4.1 15.4-10.8 0-2.5.7-10.5 1.9-24s1.7-23.3 1.4-29.3c-.3-6.1-1-11.2-2.2-15.4 11.8-5.8 22.4-9.1 31.9-10.1 2.1 1.2 3.3 5.6 3.7 13.2.3 7.6-.5 18.4-2.5 32.2-2.1 13.8-2.9 23.8-2.7 29.9.2 6.1 1.6 9 4.1 8.8 5.9-.6 12.2-5.7 18.8-15.2 6.6-9.5 10-17.2 10.2-23.1l-16.7-16c.3-6.7 1.6-12.9 4-18.6 2.4-5.7 4.7-9.8 6.9-12.2l3.12-3.3c6.7-.7 11.85.5 15.44 3.7 3.57 3.2 5.5 7.2 5.7 12 .56 12.2-1.9 25.5-7.33 39.7-5.4 14.2-13.1 26.7-22.9 37.3-9.8 10.6-20 16.4-30.6 17.5-5.3.6-9.8-.5-13.6-3.1-3.8-2.6-6.4-6.3-7.9-10.9-10.4 12-20.7 18.5-31 19.6-6.84.7-12-.9-15.5-4.8-3.44-3.9-5.3-8.9-5.6-14.9zm180.9-57.4c-3.47 16.3-5.1 26.9-4.87 31.77.22 4.88 1.03 7.24 2.43 7.1.94-.1 4.45-1.95 10.54-5.54l2.74-1.7 4.34 7.73c-1.35 1.38-3.14 3.12-5.4 5.23-2.24 2.1-6.48 5-12.72 8.9-6.23 3.8-12.07 6-17.52 6.6-5.45.5-9.8-.7-13.07-3.7-3.3-3-5.1-7.4-5.3-13-.3-5.7 1.2-15.9 4.4-30.8s4.7-24.5 4.5-28.8c-.3-6.5-2.6-12.4-6.9-17.7l-2.3-2.6.1-3.1c8.1-3.2 21.4-5.8 40-7.7 2.1 2.1 3.3 6.4 3.6 12.9.3 6.5-1.3 17.9-4.8 34.2zM415 21.64c-.23-5.1 1.7-9.82 5.8-14.13 4.1-4.3 8.96-6.7 14.56-7.3 5.6-.6 10.03.5 13.3 3.3 3.24 2.8 5 6.7 5.22 11.7.23 5.1-1.8 9.7-6.05 14.1-4.24 4.4-9.1 6.8-14.54 7.4-5.5.6-9.8-.5-13.1-3.2-3.3-2.7-5-6.6-5.2-11.7zM107.9 321.3c-.9-2-9.2-14.66-12.14-14.35-2.96.3-5.17 0-6.62-.94-1.13-.9-1.8-3.5-2-7.7-.18-4.2.06-7.4.73-9.7.68-2.3 3.08-3.7 7.2-4.1 4.13-.4 8.1.2 11.93 1.8 4.36-3.9 8.32-9.6 11.88-17.1 3.57-7.5 5.18-15.1 4.83-22.7-.5-11-4.1-18.7-11-23.1-6.8-4.4-17.2-5.9-31-4.4-19.9 2.1-36 7.7-48.3 16.7-12.3 9.1-18.3 18-17.9 26.6.2 4.2 2.1 7.5 5.6 9.8 3.6 2.4 7.1 3.8 10.6 4.4-.3 6.3-2 12.2-5 17.8-6.1-.3-11.9-2.8-17.4-7.6-5.6-4.8-8.6-11.8-9-20.9-.7-15.1 7.6-28.5 24.7-40.1 17-11.7 38.5-18.8 64.5-21.5 20.9-2.2 37.6 0 50.1 6.4s19.1 17.2 19.8 32.2c.5 10.5-3 20.4-10.6 29.7s-16.8 17.2-27.7 23.8c2.8 2.3 11.4 21 13.7 25.6 2.4 4.5 7.7 19.7 8.6 21.5l3.6 7.6c6.9 15.8 14.3 23.9 23.8 28.8 9.5 4.9 24.9 5.6 29.4 5.2.9-.1 4.9.2 5.4 0l3.2 5.9c-7.4 6.8-20.6 13.9-31.7 17.1-11.1 3.3-13.7 3.4-23.9-.8-10.2-4.1-23.4-15-27.5-30.3-.6-1.5-2.2-7-4.8-16.5-5.3-20.3-11.9-36.8-12.8-38.8zm-53.7-66.23c-.15-3.56-2.2-7.23-6.13-11.02l.16-1.65c8.03-5.66 18.2-9.13 30.5-10.42 4.8-.5 8.4-.5 10.78.04.9 1.62 1.4 3.98 1.5 7.08.4 6.8-2.8 26.73-9.3 59.76-6.5 33.04-10.1 57.6-10.8 73.7-9 3.58-19.2 5.96-30.4 7.13-2.6.2-4.6.2-5.9-.1.3-10 3.8-30.7 10.4-62.1 6.6-31.4 9.7-52.2 9.3-62.5zm115.04 56.6c2.73-16.55 3.96-26.64 3.66-30.27-.3-3.63-3.47-8.06-9.54-13.3v-3.05c10.36-3.64 24.14-6.66 41.34-9.07.94 1.9 1.62 5.48 2.04 10.73.43 5.3-.84 16.8-3.8 34.5-2.94 17.8-4.25 28.8-3.9 32.9.32 4.2 2.04 6.1 5.14 5.6 4.5-.6 9.55-2.9 15.18-7 .32-3.8 1.3-11.1 2.93-21.9 3.5-25.5 4.9-43.5 4-54.2 5.2-2.9 14.9-5.3 29-7.3l4.4-.6c.6 7.3-.5 21.8-3.1 43.5-2.7 21.7-3.8 34.4-3.5 38 .3 3.7 1.2 5.4 2.7 5.1.9-.1 5.2-2.6 12.8-7.4l5 6.8c-12.9 13.4-24.5 20.8-34.9 22.2-5 .7-9.3-.1-13-2.4-3.8-2.3-6-5.6-6.8-10-11.8 12-22.7 18.7-33 20.1-5.4.8-10-.4-13.8-3.4-3.8-3-5.9-7.9-6.5-14.4-.6-6.6.5-18.1 3.3-34.7zM328.4 181.53c.05.24-.5 3.82-1.42 9.73-1.98 12.56-5.68 35.67-9.17 59.75 8.8-7.9 16.9-12.4 24.5-13.4 7.5-1 14.2-2.4 20.1 3.1 5.9 5.5 9.1 9.1 10.2 21.9 1.8 21.5-2.6 39.6-10.1 52.5-7.5 13-14.4 20.2-26.5 27.4-4.2 2.5-10.2 3.6-14.8 3.2-4.6-.4-8.2-1.1-10.6-2l-3.6-1.1c-9.6 4.8-19.2 7.9-28.6 9.2-1-.6-1.7-4.3-2.3-11-.5-6.7 2-29.6 7.6-68.5 5.7-39 7.9-68.8 6.7-82.7-.2-2.4-.4-1.7 0-3.5 1.8-.8 2.9-.9 5-1.9 2.4-1 6.1-3 11.6-7.1 1.9-1.4 5.8-5.8 10.1-1.1 4.3 4.7 11.7 5.6 11.8 6.1zm2.1 77.33c-2.97.3-7.34 2.16-13.13 5.57-5.78 30.77-8.7 52.7-8.7 65.76 4.75 1.5 7.36 3.2 13.43 1.6 6.07-1.7 15.22-17.2 18.7-28.4 3.46-11.3 4.54-18.5 3.94-31.6-.6-13.1-8.18-13.7-14.25-13zm74.38 74.3c-12.86 1.8-19.87-4.4-21-18.6-.3-3.4.47-13.43 2.26-30.08 1.78-16.65 2.24-30.38 1.37-41.2-.1-2.3-.6-4.43-1.4-6.35 8.1-4.42 19.5-7.64 34-9.68 1 2.05 1.7 5.7 2.1 10.96.5 5.3-.4 16-2.5 32.3-2.1 16.3-3 26.8-2.6 31.5.4 4.8 1.8 7 4.3 6.7 6.8-.9 13.2-4.2 19.2-9.9 0-5.8 1.3-29.4 3.7-71 5.3-2.9 14.9-5.4 29.1-7.3l4.4-.6c-1.2 7.5-2.8 26.3-4.7 56.3-1.8 30-3.4 46.7-4.6 54.8-1.2 8.2-1.2 16.1-3.7 25.6s-3.8 12.3-7.6 18.4c-2.7 4.7-9.3 11.1-17.3 13.3-8 2.2-16 .3-23.5-1.5-7.4-1.8-16.2-6.7-23.1-10.5-3.1-1.7-9.2-7.2-19.5-8.9-15.8-2.6-29.2 5.7-29.3 3.8-.1-.7-.5-5.8 0-6.4 3-2.4 10-8.9 16.76-13.3 6.7-4.4 10.55-6.6 14.2-8.2 7.6-2.9 12.44 3.2 21.23 8.7 8.8 5.5 19.3 13.1 32.2 14.2 6.9-1.1 7.2-2.1 9.53-12.2.1-.5 3.3-25.4 2.9-43-3.5 4.3-8.8 8.9-16.1 13.9-7.3 5-13.86 7.9-19.75 8.8z" fill="#E3395A" fill-rule="evenodd"/></svg>