<?xml version="1.0" encoding="utf-8"?>
<!-- Generator: Adobe Illustrator 16.0.4, SVG Export Plug-In . SVG Version: 6.00 Build 0)  -->
<!DOCTYPE svg PUBLIC "-//W3C//DTD SVG 1.1//EN" "http://www.w3.org/Graphics/SVG/1.1/DTD/svg11.dtd">
<svg version="1.1" id="Layer_1" xmlns="http://www.w3.org/2000/svg" xmlns:xlink="http://www.w3.org/1999/xlink" x="0px" y="0px"
	 width="814.618px" height="410.135px" viewBox="0 0 814.618 410.135" enable-background="new 0 0 814.618 410.135"
	 xml:space="preserve">
<g>
	<path fill="#9B7557" d="M664.547,288.265c0,0-2.862-36.562,6.272-40.82c9.134-4.258,12.102,2.383,10.878,13.449
		c-1.225,11.064-8.577,27.371-8.577,27.371s26.346,5.02,20.966,13.734c-4.311,1.99-31.75,0.23-31.75-2.762
		S664.547,288.265,664.547,288.265"/>
	<path fill="none" stroke="#524E4D" stroke-width="3" stroke-miterlimit="10" d="M664.547,288.265c0,0-2.862-36.562,6.272-40.82
		c9.134-4.258,12.102,2.383,10.878,13.449c-1.225,11.064-8.577,27.371-8.577,27.371s26.346,5.02,20.966,13.734
		c-4.311,1.99-31.75,0.23-31.75-2.762S664.547,288.265,664.547,288.265z"/>
	<path fill="#E8365D" d="M585.706,106.179c0.551-0.868,1.104-1.735,1.657-2.601c28.777-44.936,61.868-86.682,67.463-89.164
		c11.113-4.93,80.281,2.057,83.014,4.891c1.396,1.449,23.627,61.291,42.736,120.656c17.38,53.988,32.046,107.621,31.423,114.81
		l0.021,0.014c-0.006,0.002-0.015,0.006-0.022,0.01c0,0.01,0,0.018-0.001,0.025l-0.02-0.014
		c-6.32,3.486-61.292,11.834-117.688,17.848c-62.014,6.611-125.728,10.562-127.618,9.875c-3.699-1.35-38.142-61.738-38.142-73.895
		c0-6.122,24.735-53.3,54.137-97.831c0.565-0.856,1.135-1.714,1.704-2.569L585.706,106.179z"/>
	<path fill="#DF2D51" d="M569.367,133.941l28.799,75.285c0,0,16.042-31.328,40.616-71.414
		c21.773-35.519,44.539-61.037,44.539-61.037l-83.329,10.084L569.367,133.941z"/>
	<polygon fill="#524E4D" points="599.992,86.858 683.321,76.775 594.057,95.473 	"/>
	<path fill-rule="evenodd" clip-rule="evenodd" fill="#DF2D51" d="M566.668,282.529c1.892,0.688,65.104-3.266,127.118-9.875
		c51.121-5.451,110.563-13.867,118.232-17.869l-213.854-45.561c0,0-7.845,13.352-17.645,37.449
		C571.174,269.654,566.668,282.529,566.668,282.529"/>
	<path fill-rule="evenodd" clip-rule="evenodd" fill="#DF2D51" d="M737.839,19.305c1.396,1.45,23.559,60.428,42.627,119.807
		c15.718,48.949,32.092,106.708,31.539,115.341L683.321,76.775c0,0,16.881-19.601,21.645-25.012
		C713.395,42.189,737.839,19.305,737.839,19.305"/>
	<path fill="#524E4D" d="M672.588,14.002c23.649,0,58.921,4.058,64.623,5.941c3.344,7.18,24.453,64.26,42.666,120.686
		c17.329,53.689,30.481,102.273,31.658,113.228c-10.515,3.371-60.383,11.088-116.621,17.068
		c-57.831,6.148-117.791,10.049-127.619,10.049c-0.114,0-0.215-0.002-0.306-0.002c-2.423-2.709-10.624-15.682-20.02-33.145
		c-12.408-23.059-16.829-35.094-16.829-38.646c0.274-5.46,23.984-51.361,54.398-97.304c0.571-0.864,1.146-1.728,1.74-2.617
		l1.372-2.105c0.559-0.875,1.116-1.75,1.675-2.621c29.782-46.379,62.23-86.605,67.103-89.054
		C657.432,15.035,661.016,14.002,672.588,14.002L672.588,14.002 M672.585,11.002c-8.134,0-14.571,0.494-17.371,1.734
		c-5.673,2.51-39.229,44.73-68.411,90.176c-0.562,0.875-1.122,1.752-1.681,2.631l-1.355,2.078c-0.578,0.867-1.155,1.732-1.729,2.6
		c-29.814,45.035-54.897,92.751-54.897,98.941c0,12.295,34.926,73.371,38.677,74.734c0.146,0.053,0.646,0.078,1.478,0.078
		c10.185,0,69.799-3.885,127.936-10.066c57.189-6.08,112.935-14.523,119.342-18.049l0.021,0.014
		c0.001-0.008,0.001-0.018,0.002-0.023c0.006-0.006,0.015-0.01,0.022-0.014l-0.021-0.012c0.632-7.273-14.24-61.514-31.864-116.115
		c-19.379-60.041-41.921-120.561-43.338-122.027C737.312,15.527,697.183,11.002,672.585,11.002"/>
	<polygon fill="#524E4D" points="602.942,200.166 578.487,157.785 598.167,209.226 696.338,230.14 	"/>
	<path fill-rule="evenodd" clip-rule="evenodd" fill="#C9A283" d="M743.021,213.095c-3.714,0-7.107-0.359-10.085-1.068
		c-0.721-0.172-1.402-0.326-2.062-0.475c-4.402-0.988-7.584-1.703-15.095-6.495c-0.304-0.192-0.644-0.296-0.981-0.296
		c-0.949,0-1.421,0.548-1.658,1.269c-2.463-2.853-5.188-4.955-6.312-4.955h-0.118l-1.073,0.17l-0.264,0.92
		c-0.156,0.545-0.296,1.141-0.429,1.711c-0.025,0.104-0.051,0.218-0.078,0.334c-1.033-1.113-1.689-1.691-2.537-1.691h-0.375
		l-0.398,0.191c-0.404,0.217-0.762,0.527-1.087,0.873c-2.261-8.838-8.848-12.998-13.318-15.821c-1.45-0.917-3.438-2.173-3.555-2.729
		c0.328-3.629,0.112-5.379,0.038-5.828c-0.23-1.457-1.726-1.984-3.189-2.482c1.942-0.352,2.956-0.611,3.393-1.53
		c0.226-0.475,0.207-1.034-0.049-1.495c-0.627-1.127-1.446-2.117-2.238-3.074c-0.351-0.424-0.694-0.838-1.011-1.252
		c0.979,0.228,1.896,0.431,2.597,0.431c0.769,0,1.347-0.255,1.716-0.757c0.33-0.448,0.419-1.025,0.244-1.584
		c-0.816-2.625-1.474-5.336-1.953-8.057c-6.16-34.937,17.171-68.357,52.008-74.498c3.698-0.652,7.462-0.984,11.187-0.984
		c31.164,0,57.729,22.375,63.163,53.201c2.985,16.924-0.781,33.994-10.604,48.065c-9.823,14.07-24.527,23.458-41.402,26.432
		l-0.229,0.041C754.625,212.126,749.14,213.095,743.021,213.095"/>
	<path fill="#524E4D" d="M746.339,85.422c30.435,0,56.375,21.854,61.685,51.961c6.017,34.121-16.769,66.762-50.791,72.761
		l-0.227,0.041c-2.596,0.457-7.996,1.41-13.984,1.41c-3.598,0-6.873-0.346-9.737-1.027c-0.728-0.174-1.414-0.328-2.078-0.479
		c-4.255-0.955-7.329-1.645-14.62-6.296c-0.545-0.348-1.163-0.531-1.786-0.531h-0.002c-0.553,0-1.163,0.148-1.712,0.494
		c-2.264-2.354-4.724-4.178-6.259-4.178h-0.251l-0.235,0.037l-1.885,0.303l-0.447,1.559c-0.505-0.288-1.049-0.456-1.681-0.457
		c-0.348,0-0.694,0.059-1.021,0.17c-2.844-8.055-9.277-12.12-13.355-14.695c-0.972-0.613-2.248-1.421-2.811-1.92
		c0.259-3.307,0.07-5.01-0.025-5.602c-0.128-0.805-0.469-1.424-0.928-1.912c0.419-0.307,0.754-0.699,1.004-1.225
		c0.433-0.912,0.397-1.984-0.094-2.869c-0.348-0.625-0.736-1.196-1.145-1.74c1.148-0.219,1.797-0.873,2.105-1.292
		c0.615-0.836,0.786-1.899,0.47-2.92c-0.798-2.562-1.44-5.21-1.91-7.871c-6.016-34.121,16.769-66.763,50.792-72.761
		C739.023,85.746,742.699,85.422,746.339,85.422L746.339,85.422 M746.336,82.422c-3.773,0-7.603,0.328-11.447,1.006
		c-35.709,6.297-59.539,40.429-53.225,76.236c0.498,2.824,1.169,5.574,1.999,8.242c0.09,0.289-0.129,0.395-0.529,0.395
		c-1.133,0-3.717-0.859-4.794-0.859c-0.369,0-0.561,0.102-0.456,0.373c0.936,2.428,3.303,4.292,4.593,6.611
		c0.418,0.752-6.283,1.119-5.834,1.859c1.076,1.766,5.314,1.928,5.509,3.156c0.016,0.098,0.293,1.663-0.049,5.479
		c-0.343,3.817,14.963,6.121,17.331,21.068c0.062,0.393,0.173,0.549,0.32,0.549c0.525,0,1.523-1.977,2.506-2.501
		c0.021-0.01,0.042-0.016,0.068-0.016c0.568,0.001,2.471,2.519,2.948,2.742c0.037,0.018,0.073,0.025,0.106,0.025
		c0.592,0,0.91-2.387,1.433-4.208c0.003,0,0.007,0,0.012,0c0.414,0,4.097,2.459,7.157,7.019c0.077,0.096,0.139,0.141,0.188,0.141
		c0.447,0-0.061-3.477,0.625-3.477c0.052,0,0.109,0.02,0.175,0.061c8.865,5.656,12.021,5.828,17.615,7.164
		c3.441,0.82,7.036,1.109,10.434,1.109c6.433,0,12.149-1.043,14.731-1.498c35.709-6.295,59.539-40.427,53.226-76.235
		C805.344,104.91,777.616,82.422,746.336,82.422"/>
	<path fill="#FFFFFF" d="M715.304,195.607c0,0,1.983-7.684-1.74-14.992c-3.723-7.307-11.105-10.219-11.105-10.219
		s-25.581,15.395-37.515,24.171c-23.303,17.137-43.531,37.743-43.531,37.743s28.309-13.375,50.521-22.91
		C694.145,199.865,715.304,195.607,715.304,195.607"/>
	<path fill="none" stroke="#524E4D" stroke-width="3" stroke-linecap="round" stroke-linejoin="round" stroke-miterlimit="10" d="
		M715.304,195.607c0,0,1.983-7.684-1.74-14.992c-3.723-7.307-11.105-10.219-11.105-10.219s-25.581,15.395-37.515,24.171
		c-23.303,17.137-43.531,37.743-43.531,37.743s28.309-13.375,50.521-22.91C694.145,199.865,715.304,195.607,715.304,195.607z"/>
	<path fill="#524E4D" d="M736.318,161.939c-2.351,0.414-4.636-0.164-6.614-1.439c-3.013-1.944-5.312-5.506-6.039-9.635
		c-1.207-6.84,2.625-13.233,8.559-14.279c5.933-1.047,8.316,3.83,9.478,11.244C742.861,155.246,742.251,160.894,736.318,161.939"/>
	<path fill="#FFFFFF" d="M730.796,151.309c-2.097,0.369-4.125-1.188-4.528-3.479c-0.404-2.29,1.005-5.188,3.103-5.558
		c2.097-0.371,2.887,1.998,3.272,4.482C733.03,149.238,732.893,150.938,730.796,151.309"/>
	<path fill="#524E4D" d="M701.506,159.828c-4.2,0.74-8.439-3.392-9.469-9.23c-1.029-5.838,1.54-11.17,5.74-11.91
		c4.2-0.741,6.02,3.459,7.031,9.783C705.82,154.797,705.706,159.088,701.506,159.828"/>
	<path fill="#FFFFFF" d="M697.364,150.357c-1.752,0.31-3.449-1.01-3.791-2.945s0.832-4.381,2.584-4.689
		c1.752-0.31,2.416,1.692,2.742,3.791C699.225,148.613,699.116,150.049,697.364,150.357"/>
	<path fill="#C9A283" d="M624.632,303.123c0,0-6.589-41.096,3.677-45.881c10.267-4.787,13.603,2.678,12.227,15.115
		s-6.268,30.766-6.268,30.766s27.992,15.633,21.945,25.428c-4.845,2.236-34.066-8.732-34.066-12.096
		S624.632,303.123,624.632,303.123"/>
	<path fill="none" stroke="#524E4D" stroke-width="3" stroke-miterlimit="10" d="M624.632,303.123c0,0-6.589-41.096,3.677-45.881
		c10.267-4.787,13.603,2.678,12.227,15.115s-6.268,30.766-6.268,30.766s27.992,15.633,21.945,25.428
		c-4.845,2.236-34.066-8.732-34.066-12.096S624.632,303.123,624.632,303.123z"/>
</g>
<g>
	<defs>
		<path id="SVGID_1_" d="M255.39,249.123c-14.103,1.975-23.778,4.422-29.026,7.342c0.861,10.656-0.498,28.73-4.079,54.223
			c-1.631,10.85-2.606,18.172-2.926,21.963c-5.626,4.068-10.687,6.416-15.18,7.047c-3.1,0.432-4.818-1.436-5.155-5.605
			s0.971-15.131,3.924-32.881c2.952-17.75,4.217-29.25,3.792-34.502c-0.424-5.25-1.105-8.826-2.042-10.725
			c-17.201,2.408-30.982,5.43-41.345,9.066l0.011,3.043c6.065,5.244,9.245,9.68,9.538,13.311c0.293,3.627-0.928,13.717-3.665,30.266
			s-3.839,28.105-3.308,34.668c0.53,6.564,2.683,11.377,6.456,14.443c3.774,3.062,8.373,4.215,13.796,3.457
			c10.228-1.432,21.205-8.123,32.934-20.072c0.826,4.414,3.096,7.766,6.808,10.059c3.71,2.293,8.046,3.09,13.005,2.396
			c10.382-1.453,22.007-8.861,34.875-22.219l-5.016-6.795c-7.603,4.812-11.87,7.285-12.8,7.414c-1.55,0.217-2.471-1.49-2.765-5.117
			c-0.293-3.631,0.878-16.289,3.512-37.979c2.635-21.689,3.659-36.162,3.072-43.422L255.39,249.123z M78.716,231.984
			c-12.294,1.285-22.455,4.758-30.484,10.42l-0.159,1.648c3.927,3.789,5.971,7.463,6.134,11.023
			c0.468,10.215-2.605,31.027-9.219,62.434c-6.615,31.408-10.085,52.105-10.409,62.094c1.266,0.334,3.222,0.363,5.867,0.086
			c11.206-1.17,21.339-3.551,30.4-7.145c0.671-16.088,4.276-40.648,10.817-73.682c6.539-33.033,9.654-52.955,9.342-59.764
			c-0.143-3.098-0.641-5.455-1.497-7.076c-1.214-0.273-2.751-0.408-4.61-0.408C83.13,231.615,81.069,231.738,78.716,231.984
			 M473.095,220.292c-14.103,1.975-23.776,4.422-29.026,7.346c-2.437,41.572-3.656,65.25-3.66,71.029
			c-5.965,5.678-12.358,8.994-19.176,9.947c-2.48,0.348-3.914-1.873-4.301-6.66c-0.387-4.789,0.487-15.297,2.623-31.527
			c2.137-16.23,2.991-26.971,2.566-32.223c-0.424-5.25-1.112-8.902-2.061-10.957c-14.568,2.039-25.904,5.268-34.009,9.682
			c0.782,1.92,1.267,4.039,1.454,6.355c0.874,10.812,0.417,24.541-1.372,41.191c-1.788,16.65-2.544,26.674-2.269,30.072
			c1.148,14.209,8.154,20.412,21.015,18.613c5.89-0.826,12.472-3.738,19.746-8.738c7.274-5.002,12.62-9.615,16.041-13.842
			c0.39,17.623-2.735,42.473-2.867,43.039c-2.325,10.01-2.634,11.041-9.53,12.174c-12.881-1.133-23.389-8.689-32.181-14.201
			c-8.793-5.51-13.634-11.625-21.247-8.664c-3.631,1.6-7.491,3.834-14.206,8.232c-6.714,4.4-13.753,10.844-16.766,13.291
			c-0.444,0.566-0.058,5.67,0,6.398c0.071,0.889,3.222-0.572,8.234-2.035c5.39-1.572,12.932-3.146,21.114-1.793
			c10.36,1.662,16.381,7.162,19.563,8.891c6.967,3.789,15.752,8.729,23.17,10.496c7.416,1.77,15.5,3.689,23.475,1.514
			c7.973-2.174,14.584-8.59,17.314-13.227c3.824-6.107,5.062-8.92,7.604-18.373c2.544-9.455,2.552-17.432,3.774-25.568
			c1.224-8.137,2.777-24.756,4.658-54.775c1.883-30.018,3.461-48.785,4.733-56.305L473.095,220.292z M89.399,204.039
			c-25.989,2.716-47.553,9.871-64.693,21.46c-17.14,11.588-25.361,24.969-24.666,40.137c0.417,9.133,3.395,16.092,8.93,20.879
			c5.536,4.789,11.36,7.326,17.472,7.623c3.028-5.605,4.711-11.535,5.049-17.791c-3.466-0.572-6.973-2.033-10.521-4.385
			c-3.548-2.35-5.417-5.613-5.609-9.793c-0.396-8.668,5.57-17.535,17.899-26.6c12.329-9.066,28.453-14.639,48.373-16.721
			c13.851-1.449,24.2,0.035,31.048,4.451c6.848,4.416,10.524,12.121,11.027,23.109c0.347,7.586-1.261,15.141-4.826,22.668
			c-3.564,7.527-7.525,13.229-11.882,17.105c-3.827-1.621-7.803-2.217-11.926-1.785c-4.125,0.43-6.525,1.809-7.201,4.133
			c-0.674,2.326-0.917,5.58-0.725,9.758c0.192,4.18,0.857,6.754,1.995,7.725c1.451,0.936,3.654,1.25,6.612,0.941
			c2.956-0.309,11.245,12.357,12.144,14.34s7.494,18.5,12.801,38.787c2.625,9.523,4.207,15.035,4.745,16.533
			c4.14,15.277,17.35,26.184,27.528,30.338c10.178,4.152,12.825,4.051,23.892,0.801c11.066-3.248,24.319-10.281,31.669-17.115
			l-3.215-5.869c-0.257,0.113-1.635,0.068-2.964,0.025c-1.048-0.035-2.066-0.068-2.477-0.025
			c-4.513,0.471-19.962-0.289-29.452-5.141c-9.49-4.85-16.897-12.988-23.718-28.762c-1.556-3.258-2.766-5.775-3.629-7.553
			c-0.863-1.775-6.215-16.959-8.535-21.539c-2.321-4.578-10.95-23.252-13.717-25.607c10.957-6.588,20.21-14.514,27.761-23.779
			c7.55-9.266,11.085-19.162,10.603-29.688c-0.687-15.014-7.278-25.756-19.772-32.227c-9.345-4.839-21.026-7.259-35.048-7.259
			C99.646,203.215,94.654,203.49,89.399,204.039 M308.656,330.191c0.027-13.066,2.932-34.988,8.716-65.764
			c5.787-3.404,10.158-5.262,13.115-5.57c6.069-0.635,13.651-0.053,14.25,13.023c0.599,13.08-0.476,20.299-3.948,31.549
			c-3.472,11.25-12.62,26.762-18.688,28.391c-1.733,0.465-3.184,0.654-4.484,0.654C314.364,332.474,312.057,331.281,308.656,330.191
			 M306.611,176.6c-5.525,4.148-9.224,6.109-11.601,7.143c-2.174,0.946-3.206,1.059-4.999,1.898c-0.466,1.796-0.2,1.033,0,3.504
			c1.124,13.9-1.095,43.767-6.72,82.744s-8.165,61.822-7.622,68.541s1.311,10.398,2.303,11.039c9.453-1.322,19-4.377,28.644-9.162
			l3.617,1.135c2.424,0.908,5.966,1.584,10.625,2.025s10.627-0.641,14.861-3.16c12.177-7.246,19.058-14.459,26.555-27.379
			c7.496-12.922,11.885-31,10.149-52.469c-1.036-12.816-4.299-16.369-10.152-21.877c-5.852-5.506-12.535-4.115-20.051-3.064
			c-7.516,1.053-15.654,5.549-24.415,13.492c3.491-24.074,7.196-47.19,9.171-59.753c0.929-5.906,1.476-9.481,1.438-9.727
			c-0.088-0.566-7.511-1.387-11.765-6.087c-1.396-1.543-2.759-2.099-4.024-2.099C310.036,173.344,307.852,175.668,306.611,176.6
			 M195.798,89.535l-0.095,3.043l2.229,2.566c4.308,5.305,6.611,11.207,6.909,17.707c0.198,4.335-1.317,13.941-4.544,28.82
			c-3.228,14.879-4.712,25.144-4.454,30.793c0.259,5.648,2.021,9.975,5.286,12.978c3.265,3.002,7.621,4.219,13.068,3.649
			c5.446-0.569,11.287-2.773,17.523-6.614c6.236-3.84,10.477-6.812,12.726-8.912c2.25-2.101,4.047-3.844,5.391-5.229l-4.341-7.711
			l-2.737,1.686c-6.09,3.592-9.603,5.438-10.536,5.533c-1.401,0.147-2.213-2.217-2.437-7.094c-0.223-4.875,1.404-15.465,4.878-31.77
			c3.475-16.305,5.065-27.707,4.767-34.208c-0.298-6.501-1.511-10.808-3.641-12.917C217.271,83.791,203.94,86.352,195.798,89.535
			 M376.268,63.547l-3.13,3.359c-2.235,2.412-4.552,6.463-6.949,12.158c-2.398,5.693-3.755,11.9-4.073,18.621l16.682,15.986
			c-0.197,5.931-3.598,13.635-10.2,23.112s-12.861,14.525-18.775,15.144c-2.489,0.261-3.874-2.666-4.154-8.781
			c-0.281-6.113,0.592-16.08,2.617-29.9c2.026-13.82,2.863-24.561,2.512-32.223s-1.57-12.083-3.657-13.266
			c-9.493,0.992-20.128,4.359-31.906,10.101c1.132,4.237,1.836,9.373,2.113,15.409c0.277,6.038-0.214,15.809-1.472,29.314
			c-1.258,13.508-1.908,21.508-1.95,24c-5.481,6.639-10.635,10.209-15.459,10.713c-2.957,0.311-4.575-2.593-4.855-8.705
			c-0.28-6.115,0.344-15.512,1.874-28.191c1.531-12.68,2.142-22.386,1.834-29.12c-0.309-6.733-1.896-11.504-4.76-14.315
			c-2.866-2.812-6.205-4.018-10.018-3.619c-3.813,0.399-7.887,1.059-12.223,1.978c-1.854,0.505-3.629,1.002-5.327,1.491
			c-1.698,0.488-3.201,0.957-4.509,1.404c-1.309,0.447-2.464,0.841-3.465,1.179c-1.001,0.338-2.039,0.719-3.114,1.142l-0.34,2.836
			c5.859,4.986,8.908,10.11,9.149,15.373l0.207,60.866c0.277,6.036,2.146,11.013,5.61,14.927c3.463,3.916,8.618,5.516,15.465,4.799
			c10.272-1.073,20.607-7.598,31.004-19.57c1.465,4.668,4.094,8.32,7.891,10.956c3.795,2.635,8.338,3.678,13.629,3.124
			c10.583-1.106,20.792-6.956,30.627-17.549c9.835-10.594,17.476-23.018,22.921-37.272c5.446-14.256,7.889-27.497,7.328-39.726
			c-0.219-4.799-2.123-8.797-5.709-12c-2.943-2.627-6.933-3.941-11.968-3.941C378.618,63.359,377.466,63.422,376.268,63.547
			 M404.959,62.756l-0.096,3.043l2.229,2.565c4.309,5.306,6.611,11.207,6.91,17.708c0.197,4.334-1.316,13.94-4.544,28.82
			c-3.228,14.879-4.713,25.142-4.454,30.792c0.259,5.649,2.021,9.976,5.285,12.978c3.266,3.004,7.621,4.221,13.068,3.65
			c5.446-0.57,11.287-2.773,17.522-6.614s10.478-6.811,12.728-8.913c2.25-2.101,4.047-3.844,5.389-5.229l-4.34-7.711l-2.736,1.685
			c-6.092,3.593-9.604,5.437-10.536,5.535c-1.401,0.146-2.214-2.219-2.437-7.094c-0.224-4.875,1.402-15.466,4.877-31.771
			c3.476-16.305,5.065-27.708,4.768-34.208c-0.298-6.502-1.512-10.808-3.641-12.917C426.431,57.013,413.102,59.571,404.959,62.756
			 M103.806,27.283c-12.45,1.301-22.841,4.876-31.174,10.725l-0.158,1.649c3.925,3.788,5.97,7.463,6.133,11.023
			c0.468,10.215-2.776,34.972-9.733,74.269c-6.957,39.299-10.605,63.785-10.943,73.465c1.266,0.334,3.221,0.361,5.867,0.086
			c11.206-1.173,21.339-3.553,30.4-7.145c0.606-24.325,6.166-61.688,16.68-112.088c0.516-2.387,1.273-6.354,2.269-11.902
			c0.997-5.547,1.625-9.773,1.883-12.677c0.257-2.904,0.534-6.278,0.826-10.118c0.294-3.841,0.371-7.271,0.233-10.29
			c-0.138-3.017-0.635-5.337-1.492-6.958c-1.214-0.271-2.75-0.408-4.61-0.408C108.219,26.914,106.158,27.037,103.806,27.283
			 M226.182,25.705c-5.603,0.586-10.455,3.036-14.558,7.354c-4.103,4.318-6.037,9.029-5.803,14.138
			c0.234,5.107,1.977,9.009,5.227,11.7c3.251,2.693,7.6,3.755,13.047,3.186c5.447-0.568,10.299-3.021,14.557-7.354
			s6.272-9.016,6.042-14.046s-1.973-8.931-5.227-11.701c-2.687-2.287-6.172-3.431-10.459-3.431
			C228.103,25.551,227.159,25.603,226.182,25.705 M181.413,20.563c-2.787,0.603-6.82,2.151-12.101,4.647
			c-5.281,2.496-10.414,5.639-15.401,9.426c1.005,4.871,1.61,9.552,1.816,14.039c0.461,10.062-1.307,19.267-5.303,27.617
			c-7.766,11.387-14.365,19.231-19.798,23.531c-4.166-2.209-8.467-3.081-12.902-2.617c-4.436,0.463-6.991,1.858-7.666,4.185
			c-0.676,2.325-0.918,5.577-0.727,9.758c0.192,4.178,0.857,6.752,1.997,7.724c1.449,0.936,3.575,1.258,6.376,0.965
			c2.802-0.293,4.666-0.565,5.593-0.817c3.204,5.108,27.982,52.671,35.986,73.899c8.856,23.492,14.995,41.226,26.182,45.013
			c9.718,3.285,16.689,3.521,26.493,2.496c9.805-1.023,18.381-4.953,25.73-11.787l-2.717-8.115c-0.46,0.205-1.156,0.354-2.09,0.453
			c-4.513,0.471-12.448,0.602-20.923-2.332c-11.315-3.918-13.925-12.908-19.338-23.058c-5.413-10.149-8.118-15.45-15.024-30.672
			c-7.576-17.695-32.134-53.58-35.552-56.488c14.085-10.027,26.174-21.75,36.271-35.17c10.097-13.42,14.865-26.243,14.305-38.471
			c-0.369-8.05-2.711-13.092-7.026-15.13L181.413,20.563z M435.343,0.153c-5.604,0.586-10.455,3.037-14.558,7.354
			c-4.104,4.317-6.037,9.029-5.803,14.137c0.233,5.109,1.976,9.009,5.227,11.701c3.251,2.693,7.6,3.755,13.047,3.186
			c5.447-0.568,10.299-3.021,14.557-7.353c4.258-4.335,6.272-9.017,6.043-14.048c-0.23-5.029-1.974-8.93-5.228-11.7
			C445.942,1.144,442.456,0,438.169,0C437.263,0,436.321,0.053,435.343,0.153"/>
	</defs>
	<clipPath id="SVGID_2_">
		<use xlink:href="#SVGID_1_"  overflow="visible"/>
	</clipPath>
	<rect x="-5" y="-5" clip-path="url(#SVGID_2_)" fill="#DF2E51" width="487.512" height="420.134"/>
</g>
</svg>
