<?xml version="1.0" encoding="UTF-8"?>
<svg width="478px" height="411px" viewBox="0 0 478 411" version="1.1" xmlns="http://www.w3.org/2000/svg" xmlns:xlink="http://www.w3.org/1999/xlink">
    <!-- Generator: Sketch 42 (36781) - http://www.bohemiancoding.com/sketch -->
    <title>09 copy 4</title>
    <desc>Created with Sketch.</desc>
    <defs></defs>
    <g id="Page-1" stroke="none" stroke-width="1" fill="none" fill-rule="evenodd">
        <g id="style-guide" transform="translate(-188.000000, -755.000000)" fill="#E3395A">
            <path d="M380.620973,789.788331 C381.181019,802.016285 376.412705,814.839938 366.315886,828.259675 C356.219068,841.679411 344.129165,853.402154 330.045815,863.428255 C333.462842,866.337086 358.020974,902.221315 365.597666,919.918095 C372.503255,935.138638 375.208353,940.440088 380.620973,950.590003 C386.033593,960.739919 388.644605,969.729705 399.959025,973.647162 C408.433831,976.581443 416.368738,976.450664 420.881904,975.978878 C421.815662,975.881267 422.512426,975.730669 422.972216,975.527079 L425.689415,983.64136 C418.3402,990.4751 409.763489,994.404368 399.959025,995.429282 C390.154561,996.454196 383.183819,996.219534 373.466307,992.931348 C362.279101,989.14585 356.140355,971.411992 347.283698,947.919962 C339.280235,926.691008 314.502334,879.128096 311.297311,874.019749 C310.370641,874.272144 308.506697,874.544754 305.705422,874.837587 C302.904147,875.130419 300.77841,874.808304 299.328148,873.871231 C298.189139,872.90162 297.52394,870.327267 297.332532,866.148093 C297.141124,861.968919 297.383085,858.716524 298.058424,856.39081 C298.733763,854.065096 301.28907,852.670435 305.724423,852.206783 C310.159775,851.743131 314.460789,852.615468 318.627591,854.82382 C324.060001,850.523333 330.659175,842.679429 338.425309,831.291872 C342.4213,822.94236 344.18887,813.737254 343.728073,803.676279 C343.522486,799.187537 342.917209,794.507359 341.912223,789.635606 C346.899022,785.848278 352.032592,782.706628 357.313088,780.210563 C362.593584,777.714498 366.62732,776.165288 369.414417,775.562887 L373.595042,774.659289 C377.910382,776.696588 380.252335,781.739552 380.620973,789.788331 Z M266.608424,805.679839 C266.445372,802.119802 264.400656,798.445473 260.474214,794.656742 L260.633217,793.007113 C268.965815,787.159252 279.357014,783.584636 291.807127,782.283158 C296.631546,781.778835 300.228622,781.79162 302.598464,782.321514 C303.454577,783.942798 303.951746,786.262552 304.089985,789.280844 C304.228224,792.299136 304.150748,795.728741 303.857554,799.56976 C303.56436,803.410779 303.288809,806.783327 303.030893,809.687506 C302.772977,812.591686 302.145583,816.81751 301.148694,822.365106 C300.151804,827.912701 299.395287,831.879858 298.879119,834.266696 C288.365027,884.66731 282.805076,922.029703 282.199099,946.354996 C273.137657,949.946168 263.004538,952.327383 251.799437,953.498714 C249.153788,953.775278 247.197853,953.746458 245.931574,953.412253 C246.270177,943.734288 249.917903,919.246912 256.874863,879.94939 C263.831822,840.651867 267.07631,815.895598 266.608424,805.679839 Z M422.665519,883.979928 C419.190248,900.28456 417.564292,910.874568 417.787601,915.750272 C418.010911,920.625975 418.822872,922.990583 420.22351,922.844166 C421.157268,922.746555 424.669276,920.901958 430.759637,917.310319 L433.497096,915.624436 L437.83773,923.335723 C436.493806,924.720414 434.697208,926.463451 432.447882,928.564889 C430.198557,930.666327 425.95628,933.637044 419.720926,937.477128 C413.485572,941.317212 407.64452,943.521919 402.197596,944.091316 C396.750672,944.660713 392.394802,943.444184 389.129856,940.441693 C385.864911,937.439201 384.103086,933.113208 383.844331,927.463584 C383.585576,921.81396 385.070086,911.549783 388.297907,896.670746 C391.525728,881.791709 393.040367,872.185356 392.84187,867.851397 C392.544124,861.35046 390.240992,855.448062 385.932405,850.144026 L383.703855,847.577547 L383.799054,844.534867 C391.940916,841.350875 405.271418,838.790942 423.790961,836.854993 C425.920442,838.965266 427.134037,843.270807 427.431783,849.771745 C427.729529,856.272682 426.14079,867.675296 422.665519,883.979928 Z M393.822245,802.195329 C393.588301,797.087449 395.522549,792.375086 399.625045,788.058097 C403.727542,783.741108 408.579992,781.289818 414.182543,780.704153 C419.785094,780.118488 424.213459,781.210796 427.46777,783.981111 C430.722082,786.751426 432.464412,790.651769 432.69481,795.682256 C432.925209,800.712743 430.911377,805.394545 426.653254,809.727803 C422.395131,814.06106 417.542681,816.51235 412.095756,817.081747 C406.648832,817.651143 402.300052,816.589396 399.049284,813.896473 C395.798517,811.203551 394.056188,807.303208 393.822245,802.195329 Z M450.920413,914.611686 L450.712832,853.745536 C450.4718,848.482872 447.422449,843.358334 441.564687,838.371767 L441.903959,835.53686 C442.979166,835.113412 444.017222,834.732733 445.01816,834.394812 C446.019098,834.05689 447.173873,833.66401 448.482519,833.216159 C449.791165,832.768309 451.294321,832.30013 452.992033,831.811608 C454.689745,831.323086 456.465244,830.826438 458.318583,830.321648 C462.654854,829.401778 466.729353,828.742564 470.5422,828.343986 C474.355047,827.945408 477.694043,829.151594 480.559289,831.962581 C483.424535,834.773567 485.011324,839.545545 485.319704,846.278659 C485.628083,853.011773 485.017144,862.718061 483.486867,875.397816 C481.956591,888.077571 481.331473,897.474295 481.611496,903.588272 C481.891519,909.702249 483.509957,912.604643 486.466859,912.295542 C491.291278,911.79122 496.444259,908.219853 501.925957,901.581334 C501.968157,899.088518 502.61817,891.088897 503.876017,877.582232 C505.133863,864.075567 505.62454,854.304089 505.348061,848.267504 C505.071583,842.230919 504.367227,837.09453 503.234971,832.858183 C515.012618,827.116767 525.647887,823.749922 535.141098,822.757545 C537.228044,823.939112 538.446956,828.36074 538.797871,836.022559 C539.148786,843.684378 538.311583,854.425218 536.286238,868.245402 C534.260894,882.065586 533.388246,892.032517 533.668269,898.146494 C533.948292,904.260471 535.333294,907.187267 537.823316,906.926972 C543.73712,906.308769 549.995252,901.261049 556.597901,891.783659 C563.20055,882.306269 566.600569,874.602386 566.798059,868.67178 L550.116081,852.685843 C550.433751,845.965047 551.79133,839.757737 554.188857,834.063725 C556.586384,828.369713 558.902687,824.317264 561.137835,821.906258 L564.267734,818.546344 C570.95967,817.8468 576.098976,819.098074 579.685809,822.300205 C583.272641,825.502336 585.175911,829.502496 585.395676,834.300807 C585.955722,846.528761 583.512991,859.770281 578.06741,874.025763 C572.621829,888.281245 564.981474,900.705275 555.146116,911.298224 C545.310759,921.891174 535.101935,927.740689 524.51934,928.846945 C519.228042,929.400074 514.684731,928.358662 510.889271,925.722679 C507.093812,923.086696 504.463733,919.434677 502.998957,914.766514 C492.601352,926.740203 482.267033,933.26381 471.99569,934.337529 C465.148128,935.053342 459.992871,933.453809 456.529764,929.53888 C453.066657,925.623952 451.196892,920.64827 450.920413,914.611686 Z M631.826364,857.200381 C628.351093,873.505013 626.725136,884.095021 626.948446,888.970725 C627.171755,893.846428 627.983717,896.211036 629.384354,896.064619 C630.318113,895.967008 633.83012,894.122411 639.920482,890.530772 L642.657941,888.844889 L646.998575,896.556176 C645.654651,897.940867 643.858053,899.683904 641.608727,901.785342 C639.359401,903.88678 635.117125,906.857497 628.88177,910.697581 C622.646416,914.537665 616.805364,916.742372 611.35844,917.311769 C605.911516,917.881166 601.555646,916.664637 598.290701,913.662146 C595.025755,910.659654 593.263931,906.333661 593.005175,900.684037 C592.74642,895.034413 594.23093,884.770236 597.458751,869.891199 C600.686572,855.012162 602.201211,845.405809 602.002714,841.07185 C601.704968,834.570913 599.401836,828.668515 595.09325,823.364479 L592.864699,820.798 L592.959899,817.75532 C601.101761,814.571328 614.432263,812.011395 632.951805,810.075446 C635.081286,812.18572 636.294881,816.49126 636.592627,822.992198 C636.890373,829.493135 635.301635,840.895749 631.826364,857.200381 Z M602.983089,776.644487 C602.749146,771.536608 604.683393,766.824244 608.78589,762.507256 C612.888386,758.190267 617.740837,755.738977 623.343387,755.153311 C628.945938,754.567646 633.374303,755.659955 636.628615,758.43027 C639.882927,761.200585 641.625256,765.100927 641.855655,770.131415 C642.086053,775.161902 640.072221,779.843704 635.814099,784.176961 C631.555976,788.510218 626.703525,790.961509 621.256601,791.530905 C615.809676,792.100302 611.460896,791.038555 608.210129,788.345632 C604.959361,785.652709 603.217032,781.752367 602.983089,776.644487 Z M295.900352,1076.29403 C295.000961,1074.31227 286.712297,1061.64488 283.755395,1061.95398 C280.798493,1062.26308 278.594945,1061.9491 277.144683,1061.01203 C276.005673,1060.04241 275.340475,1057.46806 275.149067,1053.28889 C274.957659,1049.10971 275.19962,1045.85732 275.874959,1043.5316 C276.550298,1041.20589 278.949981,1039.8275 283.074081,1039.39638 C287.198181,1038.96527 291.173767,1039.56058 295.000961,1041.18233 C299.358164,1037.30529 303.318985,1031.60346 306.883543,1024.07668 C310.4481,1016.54989 312.05667,1008.9944 311.709299,1001.40997 C311.205967,990.42029 307.530323,982.717331 300.682257,978.300862 C293.834192,973.884393 283.484939,972.400128 269.634189,973.848022 C249.714009,975.930387 233.589615,981.504033 221.260522,990.569125 C208.931429,999.634217 202.96547,1008.50059 203.362465,1017.1685 C203.553873,1021.34768 205.42347,1024.61263 208.971311,1026.96344 C212.519153,1029.31426 216.026179,1030.77505 219.492495,1031.34585 C219.153557,1037.60229 217.470553,1043.53257 214.443431,1049.13687 C208.331466,1048.84264 202.507633,1046.3021 196.971758,1041.51517 C191.435883,1036.72824 188.458859,1029.76875 188.040597,1020.63648 C187.345857,1005.46762 195.567945,992.088525 212.70711,980.498781 C229.846275,968.909037 251.410339,961.755854 277.399949,959.039018 C298.253888,956.859042 314.927266,959.004157 327.420585,965.474427 C339.913905,971.944697 346.504291,982.686706 347.191943,997.700776 C347.674007,1008.2261 344.1398,1018.12133 336.589214,1027.38677 C329.038628,1036.6522 319.784984,1044.57919 308.828005,1051.16796 C311.59417,1053.52273 320.223766,1072.1961 322.544487,1076.77479 C324.865209,1081.35348 330.216641,1096.53859 331.079844,1098.31466 C331.943046,1100.09073 333.152929,1102.60814 334.709529,1105.86698 C341.530413,1121.63964 348.937042,1129.77817 358.427394,1134.62815 C367.917746,1139.47814 383.365678,1140.23935 387.878844,1139.76756 C388.812602,1139.66995 392.86033,1139.97115 393.32012,1139.76756 L396.53462,1145.63826 C389.185405,1152.472 375.931831,1159.50488 364.865652,1162.75414 C353.799473,1166.0034 351.152,1166.10539 340.974012,1161.952 C330.796023,1157.79861 317.585466,1146.89048 313.445676,1131.61518 C312.907905,1130.11615 311.326349,1124.60489 308.700961,1115.08124 C303.39347,1094.79567 296.799743,1078.27579 295.900352,1076.29403 Z M242.208446,1010.07499 C242.045395,1006.51496 240.000679,1002.84063 236.074237,999.051898 L236.233239,997.402269 C244.261674,991.741729 254.422982,988.268906 266.717468,986.983696 C271.541886,986.479373 275.138963,986.492159 277.508805,987.022053 C278.364918,988.643337 278.863859,991.001786 279.005643,994.09747 C279.317567,1000.90798 276.203472,1020.8294 269.663263,1053.86235 C263.123055,1086.89529 259.517779,1111.45599 258.847328,1127.54519 C249.785886,1131.13636 239.652767,1133.51757 228.447666,1134.6889 C225.802017,1134.96547 223.846082,1134.93665 222.579803,1134.60244 C222.904227,1124.61491 226.37371,1103.9176 232.988354,1072.50989 C239.602999,1041.10218 242.676332,1020.29075 242.208446,1010.07499 Z M357.238302,1066.66907 C359.974982,1050.12033 361.196584,1040.03142 360.903145,1036.40202 C360.609706,1032.77262 357.430193,1028.33677 351.364511,1023.09435 L351.353465,1020.0502 C361.716192,1016.4131 375.497842,1013.3908 392.698828,1010.98323 C393.635975,1012.88253 394.316813,1016.45765 394.741363,1021.7087 C395.165913,1026.95974 393.901729,1038.46031 390.948772,1056.21075 C387.995815,1073.96119 386.687928,1084.92121 387.02507,1089.09116 C387.362213,1093.26111 389.080397,1095.12916 392.179673,1094.69536 C396.673625,1094.06635 401.733727,1091.71813 407.360131,1087.65063 C407.680304,1083.85725 408.655536,1076.5361 410.285858,1065.68697 C413.866674,1040.19533 415.226269,1022.12152 414.364682,1011.46498 C419.613602,1008.54364 429.288771,1006.09612 443.390481,1004.12235 L447.806928,1003.50419 C448.393806,1010.76299 447.369988,1025.23653 444.735444,1046.92525 C442.100899,1068.61397 440.930364,1081.27284 441.223803,1084.90224 C441.517242,1088.53164 442.438767,1090.23786 443.988405,1090.02096 C444.918188,1089.89083 449.184753,1087.41939 456.788226,1082.60659 L461.804035,1089.40164 C448.936274,1102.76078 437.311279,1110.16685 426.928701,1111.62007 C421.969858,1112.31414 417.634778,1111.51522 413.92333,1109.22328 C410.211882,1106.93133 407.942688,1103.57853 407.11568,1099.16477 C395.387735,1111.11485 384.410121,1117.80556 374.182507,1119.23709 C368.758773,1119.99623 364.160034,1118.84375 360.386152,1115.77959 C356.61227,1112.71543 354.460017,1107.90152 353.92933,1101.33772 C353.398642,1094.77391 354.501622,1083.21781 357.238302,1066.66907 Z M516.414731,936.529139 C516.452542,936.7745 515.906024,940.348719 514.977232,946.255064 C513.001588,958.818528 509.296307,981.933956 505.806053,1006.00846 C514.566952,998.066038 522.705153,993.568916 530.2209,992.516959 C537.736646,991.465001 544.420303,990.075462 550.27227,995.582084 C556.124236,1001.08871 559.387935,1004.64054 560.424336,1017.45927 C562.159996,1038.92678 557.770836,1057.00652 550.274301,1069.92625 C542.777766,1082.84598 535.896657,1090.05822 523.720346,1097.30627 C519.486334,1099.82661 513.517894,1100.90749 508.859054,1100.46625 C504.200213,1100.025 500.65867,1099.34929 498.234318,1098.4391 L494.616539,1097.30548 C484.973562,1102.09137 475.425819,1105.1458 465.973025,1106.46888 C464.980808,1105.82681 464.213124,1102.1467 463.66995,1095.42845 C463.126776,1088.7102 465.667631,1065.86351 471.292593,1026.88768 C476.917555,987.911849 479.135728,958.044011 478.01192,944.144184 C477.812131,941.673104 477.54686,942.43621 478.011824,940.640201 C479.805402,939.799968 480.836613,939.687937 483.011614,938.741478 C485.387986,937.707392 489.087235,935.747121 494.612011,931.599377 C496.459413,930.212434 500.396689,925.74154 504.650428,930.441437 C508.904167,935.141334 516.327454,935.962783 516.414731,936.529139 Z M518.487721,1013.85615 C515.530819,1014.16525 511.159335,1016.02193 505.373137,1019.42625 C499.589625,1050.20274 496.684406,1072.12413 496.657392,1085.19108 C501.418344,1086.71522 504.033185,1088.44574 510.101622,1086.81841 C516.170058,1085.19108 525.317891,1069.67885 528.790121,1058.42911 C532.262351,1047.17937 533.337189,1039.96075 532.738153,1026.88149 C532.139116,1013.80222 524.557151,1013.22168 518.487721,1013.85615 Z M592.881596,1088.16046 C580.019598,1089.96072 573.014312,1083.75658 571.86553,1069.54787 C571.590821,1066.15014 572.347539,1056.12629 574.135705,1039.47602 C575.923872,1022.82576 576.380912,1009.09535 575.506839,998.284372 C575.319537,995.967734 574.834802,993.84895 574.052619,991.927957 C582.158444,987.513412 593.494487,984.286765 608.061088,982.247919 C609.010722,984.301665 609.697804,987.954006 610.122354,993.205052 C610.546904,998.456098 609.691414,1009.19662 607.55586,1025.42693 C605.420305,1041.65725 604.546086,1052.1661 604.933175,1056.95382 C605.320265,1061.74154 606.753499,1063.96185 609.23292,1063.61481 C616.051329,1062.66046 622.443652,1059.34483 628.41008,1053.66783 C628.412961,1047.88838 629.632962,1024.21134 632.070118,982.635991 C637.319038,979.71465 646.994208,977.267129 661.095917,975.293353 L665.512365,974.675195 C664.239676,982.194272 662.661967,1000.96241 660.77919,1030.98019 C658.896413,1060.99796 657.34361,1077.61757 656.120868,1085.75442 C654.898127,1093.89127 654.889772,1101.86872 652.346453,1111.32272 C649.803134,1120.77672 648.565311,1123.58968 644.741932,1129.69659 C642.010732,1134.33389 635.40062,1140.7496 627.426728,1142.9238 C619.452835,1145.098 611.368632,1143.17909 603.95209,1141.40986 C596.535547,1139.64062 587.748423,1134.70273 580.781613,1130.91405 C577.600163,1129.18392 571.579355,1123.68469 561.21868,1122.02202 C545.430009,1119.41183 532.020826,1127.69575 531.871565,1125.84962 C531.81269,1125.12142 531.426458,1120.01786 531.87139,1119.4523 C534.883707,1117.00456 541.923119,1110.56152 548.637277,1106.16174 C555.351436,1101.76196 559.211213,1099.52963 562.842938,1097.92797 C570.456371,1094.96825 575.297454,1101.08348 584.089852,1106.59406 C592.882251,1112.10464 603.390196,1119.66152 616.269554,1120.79482 C623.167591,1119.66207 623.475746,1118.63049 625.800844,1108.62126 C625.932789,1108.05325 629.058168,1083.20482 628.667979,1065.58022 C625.248529,1069.8074 619.901476,1074.42146 612.62666,1079.42255 C605.351844,1084.42364 598.770222,1087.33625 592.881596,1088.16046 Z" id="09-copy-4"></path>
        </g>
    </g>
</svg>