<svg xmlns="http://www.w3.org/2000/svg" width="360" height="360" viewBox="0 0 360 360">
<style>
.st0{fill:#9B7557;}
.st1{fill:none;stroke:#524E4D;stroke-width:3;stroke-miterlimit:10;}
.st2{fill:#E8365D;}
.st3{fill:#DF2D51;}
.st4{fill:#524E4D;}
.st5{fill:#C9A283;}
.st6{fill:#FFFFFF;}
.st7{stroke-linecap:round;stroke-linejoin:round;}
</style>
<path class="st0" d="M176.1 295.8s-2.9-36.6 6.3-40.8 12.1 2.4 10.9 13.4c-1.2 11.1-8.6 27.4-8.6 27.4s26.3 5 21 13.7c-4.3 2-31.8.2-31.8-2.8s2.2-10.9 2.2-10.9"/>
<path class="st1" d="M176.1 295.8s-2.9-36.6 6.3-40.8 12.1 2.4 10.9 13.4c-1.2 11.1-8.6 27.4-8.6 27.4s26.3 5 21 13.7c-4.3 2-31.8.2-31.8-2.8s2.2-10.9 2.2-10.9z"/>
<path class="st2" d="M97.3 113.8l1.7-2.6c28.8-44.9 61.9-86.7 67.5-89.2 11.1-4.9 80.3 2.1 83 4.9 1.4 1.4 23.6 61.3 42.7 120.7 17.4 54 32 107.6 31.4 114.8-6.3 3.5-61.3 11.8-117.7 17.8-62 6.6-125.7 10.6-127.6 9.9-3.7-1.4-38.1-61.7-38.1-73.9 0-6.1 24.7-53.3 54.1-97.8l1.7-2.6 1.3-2z"/>
<path class="st3" d="M81 141.5l28.8 75.3s16-31.3 40.6-71.4c21.8-35.5 44.5-61 44.5-61l-83.3 10.1-30.6 47z"/>
<path class="st4" d="M111.6 94.4l83.3-10-89.3 18.7z"/>
<path class="st3" d="M78.3 290.1c1.9.7 65.1-3.3 127.1-9.9 51.1-5.5 110.6-13.9 118.2-17.9l-213.9-45.6s-7.8 13.4-17.6 37.4c-9.3 23.1-13.8 36-13.8 36M249.4 26.9c1.4 1.5 23.6 60.4 42.6 119.8 15.7 48.9 32.1 106.7 31.5 115.3L194.9 84.4s16.9-19.6 21.6-25c8.5-9.6 32.9-32.5 32.9-32.5"/>
<path class="st4" d="M184.2 21.6c23.6 0 58.9 4.1 64.6 5.9 3.3 7.2 24.5 64.3 42.7 120.7 17.3 53.7 30.5 102.3 31.7 113.2-10.5 3.4-60.4 11.1-116.6 17.1-57.8 6.1-117.8 10-127.6 10h-.3c-2.4-2.7-10.6-15.7-20-33.1-12.4-23.1-16.8-35.1-16.8-38.6.3-5.5 24-51.4 54.4-97.3l1.7-2.6 1.4-2.1c.6-.9 1.1-1.8 1.7-2.6 29.8-46.4 62.2-86.6 67.1-89.1.8-.5 4.4-1.5 16-1.5m0-3c-8.1 0-14.6.5-17.4 1.7-5.7 2.5-39.2 44.7-68.4 90.2-.6.9-1.1 1.8-1.7 2.6l-1.4 2.1c-.6.9-1.2 1.7-1.7 2.6-29.8 45-54.9 92.8-54.9 98.9 0 12.3 34.9 73.4 38.7 74.7.1.1.6.1 1.5.1 10.2 0 69.8-3.9 127.9-10.1 57.2-6.1 112.9-14.5 119.3-18 .6-7.3-14.2-61.5-31.9-116.1-19.4-60-41.9-120.6-43.3-122-2-2.2-42.1-6.7-66.7-6.7"/>
<path class="st4" d="M114.5 207.7l-24.4-42.3 19.7 51.4 98.1 20.9z"/>
<path class="st5" d="M254.6 220.7c-3.7 0-7.1-.4-10.1-1.1-.7-.2-1.4-.3-2.1-.5-4.4-1-7.6-1.7-15.1-6.5-.3-.2-.6-.3-1-.3-.9 0-1.4.5-1.7 1.3-2.5-2.9-5.2-5-6.3-5h-.1l-1.1.2-.3.9c-.2.5-.3 1.1-.4 1.7 0 .1-.1.2-.1.3-1-1.1-1.7-1.7-2.5-1.7h-.4l-.4.2c-.4.2-.8.5-1.1.9-2.3-8.8-8.8-13-13.3-15.8-1.5-.9-3.4-2.2-3.6-2.7.3-3.6.1-5.4 0-5.8-.2-1.5-1.7-2-3.2-2.5 1.9-.4 3-.6 3.4-1.5.2-.5.2-1 0-1.5-.6-1.1-1.4-2.1-2.2-3.1-.4-.4-.7-.8-1-1.3 1 .2 1.9.4 2.6.4.8 0 1.3-.3 1.7-.8.3-.4.4-1 .2-1.6-.8-2.6-1.5-5.3-2-8.1-6.2-34.9 17.2-68.4 52-74.5 3.7-.7 7.5-1 11.2-1 31.2 0 57.7 22.4 63.2 53.2 3 16.9-.8 34-10.6 48.1-9.8 14.1-24.5 23.5-41.4 26.4h-.2c-2.5.7-8 1.7-14.1 1.7"/>
<path class="st4" d="M257.9 93c30.4 0 56.4 21.9 61.7 52 6 34.1-16.8 66.8-50.8 72.8h-.2c-2.6.5-8 1.4-14 1.4-3.6 0-6.9-.3-9.7-1-.7-.2-1.4-.3-2.1-.5-4.3-1-7.3-1.6-14.6-6.3-.5-.3-1.2-.5-1.8-.5-.6 0-1.2.1-1.7.5-2.3-2.4-4.7-4.2-6.3-4.2h-.5l-1.9.3-.4 1.6c-.5-.3-1-.5-1.7-.5-.3 0-.7.1-1 .2-2.8-8.1-9.3-12.1-13.4-14.7-1-.6-2.2-1.4-2.8-1.9.3-3.3.1-5 0-5.6-.1-.8-.5-1.4-.9-1.9.4-.3.8-.7 1-1.2.4-.9.4-2-.1-2.9-.3-.6-.7-1.2-1.1-1.7 1.1-.2 1.8-.9 2.1-1.3.6-.8.8-1.9.5-2.9-.8-2.6-1.4-5.2-1.9-7.9C190.2 132.6 213 100 247 94c3.6-.7 7.3-1 10.9-1m0-3c-3.8 0-7.6.3-11.4 1-35.7 6.3-59.5 40.4-53.2 76.2.5 2.8 1.2 5.6 2 8.2.1.3-.1.4-.5.4-1.1 0-3.7-.9-4.8-.9-.4 0-.6.1-.5.4.9 2.4 3.3 4.3 4.6 6.6.4.8-6.3 1.1-5.8 1.9 1.1 1.8 5.3 1.9 5.5 3.2 0 .1.3 1.7 0 5.5s15 6.1 17.3 21.1c.1.4.2.5.3.5.5 0 1.5-2 2.5-2.5h.1c.6 0 2.5 2.5 2.9 2.7h.1c.6 0 .9-2.4 1.4-4.2.4 0 4.1 2.5 7.2 7 .1.1.1.1.2.1.4 0-.1-3.5.6-3.5.1 0 .1 0 .2.1 8.9 5.7 12 5.8 17.6 7.2 3.4.8 7 1.1 10.4 1.1 6.4 0 12.1-1 14.7-1.5 35.7-6.3 59.5-40.4 53.2-76.2-5.6-31.9-33.3-54.4-64.6-54.4"/>
<path class="st6" d="M226.9 203.2s2-7.7-1.7-15-11.1-10.2-11.1-10.2-25.6 15.4-37.5 24.2c-23.3 17.1-43.5 37.7-43.5 37.7s28.3-13.4 50.5-22.9c22.1-9.6 43.3-13.8 43.3-13.8"/>
<path class="st1 st7" d="M226.9 203.2s2-7.7-1.7-15-11.1-10.2-11.1-10.2-25.6 15.4-37.5 24.2c-23.3 17.1-43.5 37.7-43.5 37.7s28.3-13.4 50.5-22.9c22.1-9.6 43.3-13.8 43.3-13.8z"/>
<path class="st4" d="M247.9 169.5c-2.4.4-4.6-.2-6.6-1.4-3-1.9-5.3-5.5-6-9.6-1.2-6.8 2.6-13.2 8.6-14.3 5.9-1 8.3 3.8 9.5 11.2 1.1 7.4.4 13.1-5.5 14.1"/>
<path class="st6" d="M242.4 158.9c-2.1.4-4.1-1.2-4.5-3.5-.4-2.3 1-5.2 3.1-5.6 2.1-.4 2.9 2 3.3 4.5.3 2.5.2 4.2-1.9 4.6"/>
<path class="st4" d="M213.1 167.4c-4.2.7-8.4-3.4-9.5-9.2-1-5.8 1.5-11.2 5.7-11.9 4.2-.7 6 3.5 7 9.8 1.1 6.3 1 10.6-3.2 11.3"/>
<path class="st6" d="M209 157.9c-1.8.3-3.4-1-3.8-2.9s.8-4.4 2.6-4.7c1.8-.3 2.4 1.7 2.7 3.8.3 2.1.2 3.5-1.5 3.8"/>
<path class="st5" d="M136.2 310.7s-6.6-41.1 3.7-45.9c10.3-4.8 13.6 2.7 12.2 15.1s-6.3 30.8-6.3 30.8 28 15.6 21.9 25.4c-4.8 2.2-34.1-8.7-34.1-12.1s2.6-13.3 2.6-13.3"/>
<path class="st1" d="M136.2 310.7s-6.6-41.1 3.7-45.9c10.3-4.8 13.6 2.7 12.2 15.1s-6.3 30.8-6.3 30.8 28 15.6 21.9 25.4c-4.8 2.2-34.1-8.7-34.1-12.1s2.6-13.3 2.6-13.3z"/>
</svg>
